<?xml version="1.0" standalone="no"?>
<!DOCTYPE svg PUBLIC "-//W3C//DTD SVG 20010904//EN"
 "http://www.w3.org/TR/2001/REC-SVG-20010904/DTD/svg10.dtd">
<svg version="1.0" xmlns="http://www.w3.org/2000/svg"
 width="1080.000000pt" height="1080.000000pt" viewBox="0 0 1080.000000 1080.000000"
 preserveAspectRatio="xMidYMid meet">

<g transform="translate(0.000000,1080.000000) scale(0.100000,-0.100000)"
fill="#000000" stroke="none">
<path d="M4917 8076 c-4 -10 -1 -13 8 -9 8 3 12 9 9 14 -7 12 -11 11 -17 -5z"/>
<path d="M4944 8053 c4 -7 2 -23 -4 -35 -11 -22 -10 -22 4 -4 18 23 21 14 6
-15 -8 -15 -8 -19 2 -17 7 2 14 -4 14 -12 1 -8 2 -21 3 -28 0 -7 5 -11 10 -8
5 3 7 16 3 28 -4 15 -2 19 7 13 12 -7 10 -30 -6 -71 -4 -10 -2 -15 4 -11 6 4
10 -20 9 -68 0 -41 -5 -75 -10 -75 -11 0 3 -53 17 -62 8 -5 6 -8 -5 -8 -10 0
-18 5 -18 11 0 6 -6 9 -12 6 -7 -2 -13 -15 -13 -28 0 -15 -6 -24 -15 -24 -8 0
-15 -7 -15 -15 -1 -8 -7 -14 -14 -12 -7 1 -9 -2 -6 -9 5 -7 17 -1 35 16 15 14
33 25 41 23 25 -5 69 98 69 163 0 69 -16 121 -30 99 -6 -9 -10 -10 -10 -3 0 6
5 15 10 18 6 3 10 12 10 18 0 7 -4 6 -10 -3 -8 -12 -10 -9 -10 12 0 16 -9 33
-21 41 -12 9 -16 16 -9 19 6 2 -1 14 -16 28 -15 14 -24 19 -20 13z m78 -295
c-8 -8 -9 -4 -5 13 4 13 8 18 11 10 2 -7 -1 -18 -6 -23z m-28 -100 c-3 -5 -12
-2 -20 6 -20 21 -17 28 5 14 11 -7 17 -16 15 -20z"/>
<path d="M4440 6998 c11 -10 20 -31 20 -46 0 -16 5 -33 12 -40 9 -9 9 -12 -1
-12 -7 0 -9 -5 -6 -10 3 -6 -1 -17 -9 -25 -17 -17 -12 -40 9 -49 19 -7 47 40
53 91 5 44 -19 100 -38 88 -6 -4 -10 -2 -10 3 0 5 -11 12 -25 15 l-26 4 21
-19z"/>
<path d="M4372 6997 c-8 -10 -6 -13 9 -14 19 -2 26 11 10 21 -5 3 -14 0 -19
-7z"/>
<path d="M4423 6975 c0 -8 4 -15 9 -15 4 0 8 7 8 15 0 8 -4 15 -8 15 -5 0 -9
-7 -9 -15z"/>
<path d="M2310 6827 l-55 -10 35 -13 c19 -7 27 -13 18 -13 -9 -1 -20 -6 -23
-12 -8 -11 93 -4 158 12 37 10 48 24 25 32 -7 2 -5 3 4 2 10 -2 20 1 24 6 7
11 -113 9 -186 -4z"/>
<path d="M4423 6815 c-7 -7 -9 -16 -5 -20 4 -4 -2 -5 -13 -3 -12 2 -21 -3 -23
-14 -3 -14 1 -16 15 -11 27 9 43 24 37 34 -3 5 0 9 5 9 15 0 14 -23 -1 -40 -7
-8 -3 -6 10 4 27 23 27 28 4 42 -13 8 -20 8 -29 -1z"/>
<path d="M4955 6590 c-3 -5 -1 -10 4 -10 6 0 11 5 11 10 0 6 -2 10 -4 10 -3 0
-8 -4 -11 -10z"/>
<path d="M4962 6572 l-32 -18 82 -27 c46 -14 99 -28 118 -29 19 -2 38 -7 41
-12 4 -5 19 -4 35 2 23 8 25 11 9 12 -15 2 -12 5 10 11 24 7 20 7 -20 4 -37
-3 -44 -1 -27 5 31 13 28 24 -5 15 -16 -4 -24 -3 -20 1 10 11 -102 41 -127 35
-19 -4 -19 -4 0 -19 18 -14 18 -14 1 -8 -10 3 -28 6 -39 6 -21 0 -20 1 2 20
28 24 16 25 -28 2z"/>
<path d="M5243 6473 c9 -2 23 -2 30 0 6 3 -1 5 -18 5 -16 0 -22 -2 -12 -5z"/>
<path d="M2380 6119 c0 -5 5 -7 10 -4 6 3 10 8 10 11 0 2 -4 4 -10 4 -5 0 -10
-5 -10 -11z"/>
<path d="M7699 6109 c-7 -26 -5 -67 3 -63 7 4 7 -6 3 -27 -6 -28 -6 -31 7 -18
20 20 30 49 15 46 -7 -1 -12 10 -13 26 -1 23 -12 49 -15 36z"/>
<path d="M2361 6063 c0 -28 0 -28 11 -5 7 13 17 21 25 18 8 -3 11 -1 8 4 -3 6
-15 10 -26 10 -14 0 -19 -7 -18 -27z"/>
<path d="M2425 6019 c-4 -6 -5 -12 -2 -15 2 -3 7 2 10 11 7 17 1 20 -8 4z"/>
<path d="M7730 5995 c-10 -29 -10 -39 0 -48 9 -9 11 -7 6 8 -3 11 -1 27 5 35
8 12 9 10 4 -7 -3 -12 -2 -24 3 -27 5 -3 8 -22 7 -43 -2 -21 4 -69 11 -108 8
-38 14 -80 14 -92 0 -13 3 -23 8 -23 4 0 7 -54 7 -120 0 -66 -2 -120 -5 -120
-3 0 -6 -9 -7 -20 -1 -11 2 -18 8 -15 15 10 10 -7 -6 -19 -8 -6 -19 -31 -24
-56 -5 -25 -12 -54 -16 -64 -6 -13 -5 -17 3 -12 7 4 10 -3 9 -21 -1 -18 3 -28
14 -31 13 -2 21 15 39 79 12 45 19 90 17 100 -3 11 -2 17 3 14 9 -6 20 95 20
190 0 81 -23 225 -44 282 -8 21 -17 51 -20 66 -4 15 -11 25 -16 22 -6 -3 -10
4 -10 17 0 13 -4 29 -9 37 -6 10 -12 3 -21 -24z m77 -177 c-3 -7 -5 -2 -5 12
0 14 2 19 5 13 2 -7 2 -19 0 -25z m-23 -13 c5 -22 4 -26 -4 -15 -5 8 -10 24
-10 34 0 26 6 18 14 -19z"/>
<path d="M2370 6002 c0 -13 -11 -35 -25 -50 -14 -15 -25 -23 -25 -19 0 4 9 17
20 29 24 26 26 48 4 48 -8 0 -12 -5 -9 -10 3 -6 -1 -17 -9 -25 -8 -9 -18 -32
-22 -53 -4 -20 -10 -39 -13 -42 -14 -10 -42 -100 -35 -111 4 -7 3 -9 -4 -5
-14 9 -22 -6 -26 -49 -2 -19 -8 -40 -13 -47 -50 -63 -243 -728 -243 -836 0
-53 31 -112 60 -112 34 0 112 74 102 98 -3 10 -1 13 6 8 7 -4 21 12 37 44 14
27 23 50 19 50 -3 0 2 7 10 16 9 8 14 19 11 24 -3 5 -1 10 3 12 13 5 63 119
56 129 -3 5 0 9 7 9 7 0 9 10 7 25 -3 13 -1 22 3 19 5 -3 9 5 10 18 0 14 3 17
6 9 3 -9 13 5 25 35 34 88 38 115 18 122 -13 5 -13 3 -1 -12 12 -15 12 -16 -5
-9 -17 6 -18 5 -4 -12 14 -17 13 -18 -1 -13 -14 5 -16 1 -15 -25 2 -21 -4 -38
-16 -48 -10 -9 -25 -34 -34 -55 -23 -56 -100 -218 -139 -294 -62 -119 -101
-115 -71 8 22 89 90 310 123 396 15 39 26 82 26 98 0 15 4 25 8 23 9 -6 18 17
25 63 3 20 12 45 20 57 8 13 11 30 8 40 -6 14 -4 16 6 10 10 -6 12 -4 7 8 -3
10 -3 17 1 17 4 0 16 28 26 63 10 34 23 67 28 74 5 7 6 18 2 24 -4 7 -3 9 3 6
9 -6 23 30 27 68 1 6 5 16 10 23 5 8 8 31 8 53 -1 21 4 39 9 39 6 0 7 5 3 11
-4 8 -9 7 -15 -2 -4 -7 -11 -11 -14 -7 -4 3 -1 15 6 25 9 15 9 25 1 39 -11 18
-11 18 -12 -4z m-10 -101 c0 -6 -4 -13 -10 -16 -5 -3 -10 1 -10 9 0 9 5 16 10
16 6 0 10 -4 10 -9z m16 -48 c-10 -26 -18 -8 -9 23 5 21 8 24 11 11 2 -10 1
-25 -2 -34z m-15 -46 c-10 -9 -11 -8 -5 6 3 10 9 15 12 12 3 -3 0 -11 -7 -18z"/>
<path d="M2397 5463 c-9 -20 -14 -39 -12 -42 3 -2 5 2 5 10 0 12 2 11 10 -1 7
-12 9 -11 8 5 -1 11 2 30 6 43 11 34 2 26 -17 -15z"/>
<path d="M4988 5430 c-33 -21 -46 -34 -42 -45 5 -11 2 -13 -12 -8 -14 5 -16 3
-11 -11 5 -13 3 -17 -6 -13 -8 3 -14 -1 -14 -9 0 -8 4 -14 9 -14 14 0 58 54
54 65 -5 15 61 6 75 -11 6 -7 7 -19 3 -25 -5 -9 -10 -7 -15 7 -6 15 -8 12 -8
-13 -1 -17 5 -34 12 -36 6 -3 2 -6 -11 -6 -13 -1 -21 -5 -18 -10 3 -5 -1 -22
-9 -38 -19 -38 -32 -105 -16 -83 9 13 11 13 11 -2 0 -9 -4 -20 -10 -23 -15 -9
-12 -48 6 -73 18 -26 36 -29 28 -4 -5 16 -5 16 6 -1 6 -9 8 -21 5 -26 -3 -6 6
-8 21 -5 16 3 23 1 19 -6 -3 -5 1 -10 10 -10 13 0 14 4 5 20 -10 18 -22 24
-42 21 -4 0 -7 9 -5 22 1 13 -3 21 -10 20 -7 -2 -10 4 -6 13 4 12 8 13 14 3 5
-9 10 -4 14 17 4 16 14 51 23 78 13 36 14 50 5 53 -8 3 -5 11 8 24 19 19 28
65 10 55 -12 -8 -8 27 4 36 15 11 -8 42 -34 46 -12 2 -19 8 -16 13 11 16 -9 9
-57 -21z m73 -81 c-5 -13 -10 -19 -10 -12 -1 15 10 45 15 40 3 -2 0 -15 -5
-28z m-34 -71 c-3 -8 -6 -5 -6 6 -1 11 2 17 5 13 3 -3 4 -12 1 -19z m40 -30
c-3 -8 -6 -5 -6 6 -1 11 2 17 5 13 3 -3 4 -12 1 -19z m-62 -38 c3 -5 1 -10 -4
-10 -6 0 -11 5 -11 10 0 6 2 10 4 10 3 0 8 -4 11 -10z m38 -20 c-3 -12 -8 -19
-11 -16 -5 6 5 36 12 36 2 0 2 -9 -1 -20z m-38 -57 c-5 -10 -7 -21 -7 -25 1
-5 -3 -8 -9 -8 -6 0 -8 6 -5 13 3 6 9 20 12 30 4 10 9 16 12 13 2 -3 1 -13 -3
-23z"/>
<path d="M2377 5394 c6 -15 23 -19 23 -5 0 5 -7 11 -14 14 -10 4 -13 1 -9 -9z"/>
<path d="M4798 5403 c7 -3 16 -2 19 1 4 3 -2 6 -13 5 -11 0 -14 -3 -6 -6z"/>
<path d="M4805 5381 c4 -8 2 -17 -6 -22 -9 -6 -10 -9 -2 -9 19 0 27 21 13 33
-10 9 -11 9 -5 -2z"/>
<path d="M2365 5361 c-3 -5 -2 -12 3 -15 5 -3 9 1 9 9 0 17 -3 19 -12 6z"/>
<path d="M4881 5320 c1 -8 1 -22 0 -30 -1 -13 -3 -13 -12 0 -9 12 -10 12 -5
-4 4 -10 1 -26 -6 -34 -10 -13 -10 -14 0 -8 22 13 41 61 31 77 -8 12 -10 12
-8 -1z"/>
<path d="M7736 5203 c4 -22 3 -25 -5 -13 -9 12 -11 10 -11 -12 0 -33 15 -36
30 -8 8 14 8 26 0 40 -15 28 -21 25 -14 -7z"/>
<path d="M7756 5165 c-9 -26 -7 -32 5 -12 6 10 9 21 6 23 -2 3 -7 -2 -11 -11z"/>
<path d="M5309 5155 c-1 -3 -2 -8 -3 -12 -1 -5 -5 -15 -10 -23 -7 -12 -6 -13
4 -3 13 12 23 43 14 43 -2 0 -5 -2 -5 -5z"/>
<path d="M7730 5130 c0 -5 5 -10 11 -10 5 0 7 5 4 10 -3 6 -8 10 -11 10 -2 0
-4 -4 -4 -10z"/>
<path d="M5250 5120 c-9 -6 -10 -10 -3 -10 6 0 15 5 18 10 8 12 4 12 -15 0z"/>
<path d="M7689 5058 c4 -28 6 -29 9 -9 2 13 0 27 -5 32 -6 6 -7 -3 -4 -23z"/>
<path d="M5157 5066 c3 -4 -10 -5 -28 -2 -24 4 -28 3 -14 -3 l20 -8 -20 -5
c-18 -5 -18 -6 3 -7 19 -1 82 24 82 32 0 1 -11 2 -24 2 -13 0 -22 -4 -19 -9z"/>
<path d="M7650 5060 c-6 -11 -8 -20 -6 -20 3 0 10 9 16 20 6 11 8 20 6 20 -3
0 -10 -9 -16 -20z"/>
<path d="M7626 5003 c-6 -14 -5 -15 5 -6 7 7 10 15 7 18 -3 3 -9 -2 -12 -12z"/>
<path d="M2366 4881 c-3 -5 5 -11 19 -13 20 -4 23 -3 14 8 -13 16 -25 18 -33
5z"/>
<path d="M2323 4851 c-24 -20 -32 -38 -11 -25 7 5 8 3 4 -5 -5 -7 -14 -10 -21
-7 -19 7 -66 -59 -78 -108 -20 -87 -18 -139 5 -196 13 -30 25 -53 28 -51 3 2
14 -1 26 -7 l21 -11 -20 42 c-12 23 -24 44 -28 47 -13 9 -11 123 3 168 16 53
73 125 112 142 27 12 28 14 10 21 -27 11 -26 11 -51 -10z m34 -7 c-3 -3 -12
-4 -19 -1 -8 3 -5 6 6 6 11 1 17 -2 13 -5z"/>
<path d="M5108 4832 c-6 -15 -12 -89 -12 -172 -1 -133 1 -149 23 -194 27 -56
92 -131 133 -152 22 -11 28 -12 28 -2 1 9 5 8 13 -3 13 -17 104 -32 113 -18 3
5 24 9 46 9 23 0 39 2 37 4 -6 6 -115 20 -146 19 -13 -1 -20 3 -17 8 3 5 -6 9
-20 9 -13 0 -26 4 -28 8 -1 4 -20 18 -40 31 -27 16 -47 41 -70 89 -31 63 -33
72 -33 177 0 60 4 131 8 156 7 38 6 47 -7 52 -12 5 -20 -2 -28 -21z"/>
<path d="M4332 4447 c-13 -21 -21 -45 -18 -53 4 -12 2 -15 -9 -10 -12 4 -14 0
-9 -20 5 -20 2 -26 -13 -30 -19 -5 -48 -42 -40 -51 8 -7 47 16 47 28 0 6 9 24
20 39 12 17 17 35 13 46 -4 11 -3 15 4 11 7 -5 9 0 6 12 -3 10 1 22 8 27 9 5
10 2 5 -12 -5 -14 -4 -16 4 -8 7 7 10 22 8 35 -3 22 -5 21 -26 -14z"/>
<path d="M2260 4443 c0 -12 66 -73 79 -73 4 0 8 7 8 16 0 10 -7 14 -19 11 -16
-5 -17 -3 -7 9 8 10 8 14 0 14 -6 0 -13 -1 -15 -2 -2 -2 -13 6 -25 16 -12 11
-21 14 -21 9z"/>
<path d="M2395 4351 c-3 -5 0 -13 6 -17 8 -5 9 -3 4 6 -6 9 -1 10 16 5 19 -5
21 -4 9 4 -19 13 -27 14 -35 2z"/>
<path d="M4270 4350 c0 -5 5 -10 10 -10 6 0 10 5 10 10 0 6 -4 10 -10 10 -5 0
-10 -4 -10 -10z"/>
<path d="M4237 4255 c-4 -8 -3 -16 1 -19 4 -3 9 4 9 15 2 23 -3 25 -10 4z"/>
<path d="M8057 4219 c7 -7 15 -10 18 -7 3 3 -2 9 -12 12 -14 6 -15 5 -6 -5z"/>
<path d="M7971 4208 c-1 -10 -6 -17 -12 -15 -6 1 -13 -3 -15 -8 -2 -6 5 -11
16 -12 11 -1 20 4 20 10 0 8 3 8 9 -1 7 -11 9 -11 14 2 4 10 1 16 -7 16 -8 0
-17 6 -19 13 -3 7 -6 5 -6 -5z"/>
<path d="M4190 4195 c-7 -9 -11 -17 -9 -20 3 -2 10 5 17 15 14 24 10 26 -8 5z"/>
<path d="M8155 4190 c3 -5 8 -10 11 -10 2 0 4 5 4 10 0 6 -5 10 -11 10 -5 0
-7 -4 -4 -10z"/>
<path d="M8196 4177 c3 -10 9 -15 12 -12 3 3 0 11 -7 18 -10 9 -11 8 -5 -6z"/>
<path d="M7965 4162 c-23 -5 -38 -26 -42 -62 -4 -32 16 -82 30 -73 7 4 8 -1 4
-13 -7 -18 -7 -18 8 0 15 20 15 20 16 0 0 -18 1 -18 9 1 7 16 9 17 9 3 1 -9 5
-19 10 -22 11 -7 8 8 -8 48 -7 17 -9 47 -5 71 6 45 1 54 -31 47z m13 -95 c6
-5 12 -16 11 -25 0 -12 -3 -11 -9 6 -12 28 -24 29 -15 1 5 -15 4 -19 -4 -15
-6 4 -11 14 -11 22 0 9 -5 12 -12 8 -6 -4 -8 -3 -5 4 8 11 25 11 45 -1z"/>
<path d="M3300 3980 c0 -5 5 -10 11 -10 5 0 7 5 4 10 -3 6 -8 10 -11 10 -2 0
-4 -4 -4 -10z"/>
<path d="M7970 3986 c0 -2 7 -9 15 -16 13 -11 14 -10 9 4 -5 14 -24 23 -24 12z"/>
<path d="M8020 3976 c0 -4 7 -14 15 -22 8 -9 15 -11 15 -6 0 5 -7 15 -15 22
-8 7 -15 9 -15 6z"/>
<path d="M3287 3939 c-11 -41 -8 -81 5 -77 15 5 20 51 9 80 -8 21 -8 21 -14
-3z"/>
<path d="M5155 3916 c-26 -39 -55 -157 -55 -221 0 -120 53 -167 161 -141 30 7
69 21 88 32 18 10 45 25 60 33 39 21 75 51 62 51 -7 0 -9 4 -6 10 3 6 -1 7
-10 3 -11 -4 -13 -8 -5 -13 8 -5 7 -10 -4 -19 -11 -9 -15 -9 -19 1 -3 10 -8
11 -23 1 -80 -52 -167 -73 -199 -50 -30 23 -26 111 9 220 23 71 26 90 16 102
-19 23 -57 18 -75 -9z"/>
<path d="M8066 3898 c3 -5 10 -6 15 -3 13 9 11 12 -6 12 -8 0 -12 -4 -9 -9z"/>
<path d="M3262 3836 c-1 -6 -13 -54 -27 -106 -62 -230 -97 -511 -81 -642 6
-50 10 -57 34 -63 29 -7 34 -2 85 79 28 45 45 116 28 116 -6 0 -8 -10 -6 -22
3 -13 -3 -28 -16 -39 -12 -10 -18 -23 -14 -28 3 -6 2 -11 -4 -11 -6 0 -17 -13
-26 -30 -21 -41 -35 -38 -35 8 0 44 41 279 66 378 9 37 17 78 17 91 0 13 3 26
8 29 5 3 9 10 9 15 0 6 -4 7 -10 4 -5 -3 -10 1 -10 9 0 26 4 31 18 28 9 -2 11
1 6 9 -18 30 -13 106 7 94 16 -11 10 56 -7 73 -20 20 -40 24 -42 8z m48 -46
c0 -5 -5 -10 -11 -10 -5 0 -7 5 -4 10 3 6 8 10 11 10 2 0 4 -4 4 -10z m-25
-38 c-3 -3 -11 0 -18 7 -9 10 -8 11 6 5 10 -3 15 -9 12 -12z"/>
<path d="M7981 3734 c6 -7 17 -10 25 -7 18 7 10 16 -16 18 -15 1 -17 -1 -9
-11z"/>
<path d="M3300 3716 c0 -8 5 -18 10 -21 6 -3 10 1 10 9 0 8 -4 18 -10 21 -5 3
-10 -1 -10 -9z"/>
<path d="M7907 3715 c-7 -6 -17 -10 -22 -9 -16 5 -48 -23 -40 -35 3 -6 12 -11
18 -11 7 0 6 4 -3 11 -12 9 -11 10 8 6 12 -3 22 -1 22 4 0 4 7 6 15 3 8 -4 15
-1 15 6 0 6 5 8 12 4 7 -5 8 -3 3 6 -6 9 -4 12 7 8 8 -4 20 -3 27 2 9 5 2 9
-19 12 -17 3 -37 0 -43 -7z"/>
<path d="M7781 3666 l-24 -14 21 -6 c28 -9 64 2 59 17 -5 17 -29 18 -56 3z
m26 -12 c-3 -3 -12 -4 -19 -1 -8 3 -5 6 6 6 11 1 17 -2 13 -5z"/>
<path d="M7746 3638 c5 -8 2 -9 -10 -5 -10 4 -15 3 -11 -3 8 -12 32 -13 39 -1
3 5 -1 12 -10 15 -10 4 -13 2 -8 -6z"/>
<path d="M7650 3616 c0 -2 7 -7 16 -10 8 -3 12 -2 9 4 -6 10 -25 14 -25 6z"/>
<path d="M5206 3217 c-49 -30 -61 -48 -61 -91 0 -34 3 -42 14 -38 10 4 13 1 8
-10 -8 -21 31 -56 72 -64 23 -5 29 -9 19 -15 -8 -6 -9 -9 -1 -9 6 0 18 -2 26
-5 8 -4 14 0 14 9 0 8 -4 13 -8 10 -4 -2 -10 0 -14 6 -3 5 -16 10 -28 10 -18
0 -19 2 -7 11 12 8 9 9 -11 5 -31 -7 -43 2 -28 20 8 10 5 11 -13 7 -17 -4 -20
-3 -12 6 7 8 8 27 4 52 -4 21 -4 39 1 39 5 0 6 6 3 14 -4 10 8 22 33 35 21 11
31 20 23 20 -8 0 -24 -6 -34 -12z m-44 -59 c-7 -7 -12 -8 -12 -2 0 14 12 26
19 19 2 -3 -1 -11 -7 -17z m-1 -41 c-10 -9 -11 -8 -5 6 3 10 9 15 12 12 3 -3
0 -11 -7 -18z"/>
<path d="M5357 3219 c7 -7 15 -10 18 -7 3 3 -2 9 -12 12 -14 6 -15 5 -6 -5z"/>
<path d="M5658 3223 c7 -3 16 -2 19 1 4 3 -2 6 -13 5 -11 0 -14 -3 -6 -6z"/>
<path d="M5740 3213 c0 -12 3 -14 8 -7 4 7 16 14 27 17 15 4 14 5 -7 6 -21 1
-28 -4 -28 -16z"/>
<path d="M5893 3223 c9 -2 23 -2 30 0 6 3 -1 5 -18 5 -16 0 -22 -2 -12 -5z"/>
<path d="M6268 3223 c7 -3 16 -2 19 1 4 3 -2 6 -13 5 -11 0 -14 -3 -6 -6z"/>
<path d="M6791 3225 c-7 -95 -4 -454 4 -452 6 2 8 23 7 45 -2 26 1 42 7 42 7
0 11 22 11 56 0 37 -4 53 -11 48 -7 -4 -7 1 1 16 10 18 9 21 -1 15 -9 -6 -10
-3 -5 11 10 25 7 179 -4 207 -5 12 -9 18 -9 12z"/>
<path d="M6853 3223 c9 -2 23 -2 30 0 6 3 -1 5 -18 5 -16 0 -22 -2 -12 -5z"/>
<path d="M6967 3219 c7 -7 15 -10 18 -7 3 3 -2 9 -12 12 -14 6 -15 5 -6 -5z"/>
<path d="M7458 3223 c18 -2 45 -2 60 0 15 2 0 4 -33 4 -33 0 -45 -2 -27 -4z"/>
<path d="M6225 3212 c-10 -7 -18 -32 -10 -32 2 0 9 9 15 20 12 22 11 24 -5 12z"/>
<path d="M7321 3173 c-1 -47 1 -53 19 -53 17 0 20 7 20 46 0 36 -3 45 -14 41
-8 -3 -17 -1 -20 6 -2 7 -5 -12 -5 -40z"/>
<path d="M5760 3033 c0 -173 5 -243 19 -243 10 0 1 404 -9 414 -7 7 -10 -55
-10 -171z"/>
<path d="M6990 3200 c-12 -8 -12 -10 -1 -10 8 0 11 -6 7 -16 -4 -9 -2 -13 5
-8 8 5 10 -3 7 -25 -4 -30 -4 -31 15 -13 11 9 18 12 14 7 -3 -6 -1 -17 4 -25
7 -11 9 -7 7 15 -2 19 -8 29 -16 27 -9 -2 -12 4 -8 16 8 24 -14 44 -34 32z"/>
<path d="M6426 3179 c9 -10 22 -15 28 -11 7 4 5 8 -7 10 -9 2 -15 7 -13 11 3
4 -1 8 -9 8 -13 0 -12 -3 1 -18z"/>
<path d="M6185 3180 c-3 -5 -1 -10 4 -10 6 0 11 5 11 10 0 6 -2 10 -4 10 -3 0
-8 -4 -11 -10z"/>
<path d="M6466 3149 c5 -8 8 -27 7 -44 -1 -26 -1 -26 4 -5 3 14 10 28 15 31 6
4 1 12 -12 19 -18 10 -21 10 -14 -1z"/>
<path d="M5741 3134 c0 -11 3 -14 6 -6 3 7 2 16 -1 19 -3 4 -6 -2 -5 -13z"/>
<path d="M6139 3122 c-7 -15 -15 -30 -17 -34 -2 -5 -1 -8 3 -8 3 0 10 12 15
26 6 14 14 22 20 19 5 -3 10 -2 10 4 0 22 -18 19 -31 -7z"/>
<path d="M7026 3090 c6 -22 5 -23 -9 -12 -13 11 -17 8 -28 -22 -7 -19 -22 -39
-33 -45 -12 -5 -16 -10 -11 -10 18 -1 81 42 68 46 -7 3 -13 9 -13 15 0 6 7 8
15 5 20 -8 28 9 15 30 -9 15 -10 14 -4 -7z"/>
<path d="M6489 3088 c-1 -7 -3 -26 -4 -43 -2 -16 -1 -24 2 -16 4 10 10 5 19
-15 l12 -29 1 33 c1 22 -4 32 -14 32 -11 0 -14 7 -9 25 3 14 3 25 0 25 -3 0
-7 -6 -7 -12z"/>
<path d="M6114 3055 c3 -11 7 -46 8 -77 2 -44 5 -54 12 -40 13 22 25 112 14
106 -4 -3 -9 -24 -9 -47 -2 -41 -2 -41 -8 10 -4 28 -10 55 -15 60 -5 4 -6 -1
-2 -12z"/>
<path d="M6902 2993 c10 -2 15 -10 11 -19 -4 -10 2 -17 16 -21 13 -3 20 -11
17 -19 -3 -8 0 -11 10 -7 7 3 14 7 14 10 0 11 -26 29 -38 25 -6 -2 -12 1 -12
7 0 6 5 11 11 11 5 0 7 5 4 10 -3 6 -16 9 -28 9 -16 -1 -17 -3 -5 -6z"/>
<path d="M5324 2976 c1 -7 8 -23 16 -35 19 -27 52 -12 35 15 -14 22 -54 38
-51 20z m39 -12 c3 -3 3 -13 0 -21 -5 -12 -7 -12 -14 -1 -15 23 -4 40 14 22z"/>
<path d="M6497 2948 c-8 -29 -4 -32 11 -8 6 10 8 21 3 24 -5 3 -11 -4 -14 -16z"/>
<path d="M5380 2917 c-8 -7 -16 -25 -17 -42 -2 -29 -2 -29 18 9 21 44 21 50
-1 33z"/>
<path d="M6151 2917 c-1 -27 29 -88 46 -94 12 -5 12 -7 1 -15 -10 -7 -9 -8 5
-4 9 3 17 2 17 -3 0 -12 47 -31 73 -30 16 1 13 3 -10 9 -49 11 -90 50 -112
105 -11 28 -20 42 -20 32z"/>
<path d="M6971 2900 c-1 -24 42 -85 59 -85 17 0 24 -16 10 -25 -12 -8 -10 -10
8 -10 22 0 22 1 7 30 -9 17 -20 28 -25 25 -6 -3 -7 1 -4 9 3 9 1 17 -5 17 -6
1 -16 2 -23 3 -6 0 -13 7 -16 15 -3 8 0 11 5 8 5 -3 10 0 10 8 0 8 -4 12 -8 9
-4 -2 -10 2 -12 8 -3 7 -6 2 -6 -12z"/>
<path d="M6490 2895 c-1 -5 -2 -13 -1 -17 0 -5 -3 -8 -8 -8 -11 0 -82 -73 -76
-78 2 -2 12 1 22 7 10 6 14 11 9 11 -5 0 -1 9 9 20 10 11 21 17 26 14 11 -6
32 34 25 49 -2 7 -5 8 -6 2z"/>
<path d="M5380 2860 c-7 -16 -16 -27 -21 -24 -5 3 -9 1 -9 -4 0 -4 -9 -18 -20
-30 -12 -12 -16 -22 -11 -22 6 0 15 8 20 18 6 9 11 14 11 10 0 -17 42 35 46
58 6 33 -1 30 -16 -6z"/>
<path d="M6130 2881 c0 -6 4 -13 10 -16 6 -3 7 1 4 9 -7 18 -14 21 -14 7z"/>
<path d="M5740 2791 c0 -5 7 -11 14 -14 10 -4 13 -1 9 9 -6 15 -23 19 -23 5z"/>
<path d="M7341 2783 c0 -11 3 -13 6 -5 2 6 10 9 15 6 7 -4 8 -2 4 4 -11 18
-26 14 -25 -5z"/>
<path d="M5218 2773 c7 -3 16 -2 19 1 4 3 -2 6 -13 5 -11 0 -14 -3 -6 -6z"/>
<path d="M6348 2773 c7 -3 16 -2 19 1 4 3 -2 6 -13 5 -11 0 -14 -3 -6 -6z"/>
</g>
</svg>
