<svg width="213" height="459" viewBox="0 0 213 459" fill="none" xmlns="http://www.w3.org/2000/svg">
<mask id="mask0_4330_486" style="mask-type:alpha" maskUnits="userSpaceOnUse" x="0" y="0" width="213" height="459">
<path fill-rule="evenodd" clip-rule="evenodd" d="M0.80577 24.9504C0.782359 25.4023 0.770508 25.8573 0.770508 26.3151V432.533C0.770508 446.866 12.3899 458.485 26.7233 458.485H186.389C200.723 458.485 212.342 446.866 212.342 432.533V26.3151C212.342 26.2591 212.342 26.2031 212.342 26.1472C212.251 11.8912 200.667 0.362267 186.389 0.362267H169.416C167.472 1.04643 166.078 2.8992 166.078 5.07731C166.078 11.9769 160.485 17.5701 153.586 17.5701H58.9628C52.0632 17.5701 46.47 11.9769 46.47 5.07731C46.47 2.8992 45.0764 1.04643 43.1321 0.362267H26.7233C20.2563 0.362267 14.3417 2.72765 9.79757 6.64045C8.04702 8.14779 6.49986 9.88477 5.20283 11.8046C2.64281 15.594 1.05726 20.0957 0.80577 24.9504Z" fill="black"/>
</mask>
<g mask="url(#mask0_4330_486)">
<path d="M0.76709 0.362297H212.339V458.485H0.76709V0.362297Z" fill="url(#paint0_linear_4330_486)"/>
<rect x="0.507812" y="0.526491" width="211.364" height="457.674" rx="9.0182" fill="url(#paint1_linear_4330_486)"/>
<path d="M67.3144 47.3382C67.3144 46.5125 67.4988 45.775 67.8675 45.1257C68.2443 44.4684 68.7533 43.9594 69.3946 43.5986C70.0439 43.2299 70.7694 43.0455 71.571 43.0455C72.5089 43.0455 73.3305 43.286 74.036 43.767C74.7414 44.248 75.2344 44.9133 75.515 45.763H73.579C73.3867 45.3622 73.1141 45.0616 72.7614 44.8612C72.4167 44.6608 72.0159 44.5606 71.559 44.5606C71.07 44.5606 70.6331 44.6768 70.2483 44.9093C69.8716 45.1337 69.575 45.4544 69.3585 45.8712C69.1501 46.2881 69.0459 46.7771 69.0459 47.3382C69.0459 47.8913 69.1501 48.3803 69.3585 48.8052C69.575 49.222 69.8716 49.5467 70.2483 49.7791C70.6331 50.0036 71.07 50.1158 71.559 50.1158C72.0159 50.1158 72.4167 50.0156 72.7614 49.8152C73.1141 49.6068 73.3867 49.3022 73.579 48.9014H75.515C75.2344 49.7591 74.7414 50.4284 74.036 50.9094C73.3386 51.3824 72.5169 51.6188 71.571 51.6188C70.7694 51.6188 70.0439 51.4385 69.3946 51.0777C68.7533 50.709 68.2443 50.2 67.8675 49.5507C67.4988 48.9014 67.3144 48.1639 67.3144 47.3382ZM79.9108 51.6549C79.2695 51.6549 78.6923 51.5146 78.1793 51.2341C77.6662 50.9455 77.2614 50.5407 76.9648 50.0196C76.6762 49.4986 76.5319 48.8973 76.5319 48.216C76.5319 47.5346 76.6802 46.9334 76.9768 46.4123C77.2815 45.8913 77.6943 45.4905 78.2153 45.2099C78.7364 44.9213 79.3176 44.777 79.9589 44.777C80.6002 44.777 81.1813 44.9213 81.7024 45.2099C82.2234 45.4905 82.6323 45.8913 82.9289 46.4123C83.2335 46.9334 83.3858 47.5346 83.3858 48.216C83.3858 48.8973 83.2295 49.4986 82.9168 50.0196C82.6122 50.5407 82.1954 50.9455 81.6663 51.2341C81.1453 51.5146 80.5601 51.6549 79.9108 51.6549ZM79.9108 50.1879C80.2154 50.1879 80.5 50.1158 80.7645 49.9715C81.037 49.8192 81.2535 49.5948 81.4138 49.2982C81.5741 49.0016 81.6543 48.6408 81.6543 48.216C81.6543 47.5827 81.4859 47.0977 81.1493 46.761C80.8206 46.4163 80.4158 46.244 79.9348 46.244C79.4538 46.244 79.049 46.4163 78.7204 46.761C78.3997 47.0977 78.2394 47.5827 78.2394 48.216C78.2394 48.8492 78.3957 49.3382 78.7083 49.6829C79.029 50.0196 79.4298 50.1879 79.9108 50.1879ZM92.8933 44.7891C93.711 44.7891 94.3683 45.0416 94.8653 45.5466C95.3703 46.0436 95.6228 46.741 95.6228 47.6388V51.5467H93.9394V47.8673C93.9394 47.3462 93.8071 46.9494 93.5426 46.6769C93.2781 46.3963 92.9174 46.256 92.4604 46.256C92.0035 46.256 91.6388 46.3963 91.3662 46.6769C91.1017 46.9494 90.9694 47.3462 90.9694 47.8673V51.5467H89.286V47.8673C89.286 47.3462 89.1538 46.9494 88.8892 46.6769C88.6247 46.3963 88.264 46.256 87.807 46.256C87.3421 46.256 86.9734 46.3963 86.7008 46.6769C86.4363 46.9494 86.304 47.3462 86.304 47.8673V51.5467H84.6206V44.8852H86.304V45.6909C86.5204 45.4103 86.797 45.1899 87.1337 45.0295C87.4784 44.8692 87.8551 44.7891 88.264 44.7891C88.785 44.7891 89.25 44.9013 89.6588 45.1257C90.0676 45.3422 90.3842 45.6548 90.6087 46.0636C90.8251 45.6788 91.1378 45.3702 91.5466 45.1378C91.9634 44.9053 92.4123 44.7891 92.8933 44.7891ZM98.9037 45.8472C99.1201 45.5426 99.4167 45.2901 99.7935 45.0897C100.178 44.8812 100.615 44.777 101.104 44.777C101.673 44.777 102.186 44.9173 102.643 45.1979C103.108 45.4784 103.473 45.8793 103.737 46.4003C104.01 46.9133 104.146 47.5105 104.146 48.1919C104.146 48.8733 104.01 49.4785 103.737 50.0076C103.473 50.5286 103.108 50.9335 102.643 51.222C102.186 51.5106 101.673 51.6549 101.104 51.6549C100.615 51.6549 100.182 51.5547 99.8055 51.3543C99.4367 51.1539 99.1361 50.9014 98.9037 50.5968V54.7211H97.2203V44.8852H98.9037V45.8472ZM102.427 48.1919C102.427 47.7911 102.343 47.4464 102.174 47.1578C102.014 46.8612 101.797 46.6368 101.525 46.4845C101.26 46.3322 100.972 46.256 100.659 46.256C100.355 46.256 100.066 46.3362 99.7935 46.4965C99.5289 46.6488 99.3125 46.8733 99.1441 47.1699C98.9838 47.4665 98.9037 47.8152 98.9037 48.216C98.9037 48.6168 98.9838 48.9655 99.1441 49.2621C99.3125 49.5587 99.5289 49.7871 99.7935 49.9475C100.066 50.0998 100.355 50.1759 100.659 50.1759C100.972 50.1759 101.26 50.0958 101.525 49.9354C101.797 49.7751 102.014 49.5467 102.174 49.2501C102.343 48.9535 102.427 48.6007 102.427 48.1919ZM107.053 45.9193C107.269 45.5666 107.55 45.2901 107.895 45.0897C108.247 44.8893 108.648 44.7891 109.097 44.7891V46.5566H108.652C108.123 46.5566 107.722 46.6809 107.45 46.9294C107.185 47.1779 107.053 47.6107 107.053 48.228V51.5467H105.37V44.8852H107.053V45.9193ZM113.189 51.6549C112.548 51.6549 111.97 51.5146 111.457 51.2341C110.944 50.9455 110.54 50.5407 110.243 50.0196C109.954 49.4986 109.81 48.8973 109.81 48.216C109.81 47.5346 109.958 46.9334 110.255 46.4123C110.56 45.8913 110.972 45.4905 111.493 45.2099C112.014 44.9213 112.596 44.777 113.237 44.777C113.878 44.777 114.459 44.9213 114.98 45.2099C115.502 45.4905 115.91 45.8913 116.207 46.4123C116.512 46.9334 116.664 47.5346 116.664 48.216C116.664 48.8973 116.508 49.4986 116.195 50.0196C115.89 50.5407 115.473 50.9455 114.944 51.2341C114.423 51.5146 113.838 51.6549 113.189 51.6549ZM113.189 50.1879C113.493 50.1879 113.778 50.1158 114.043 49.9715C114.315 49.8192 114.532 49.5948 114.692 49.2982C114.852 49.0016 114.932 48.6408 114.932 48.216C114.932 47.5827 114.764 47.0977 114.427 46.761C114.099 46.4163 113.694 46.244 113.213 46.244C112.732 46.244 112.327 46.4163 111.998 46.761C111.678 47.0977 111.517 47.5827 111.517 48.216C111.517 48.8492 111.674 49.3382 111.986 49.6829C112.307 50.0196 112.708 50.1879 113.189 50.1879ZM120.676 49.9956L122.36 44.8852H124.151L121.686 51.5467H119.642L117.189 44.8852H118.993L120.676 49.9956ZM124.664 48.1919C124.664 47.5186 124.796 46.9214 125.061 46.4003C125.333 45.8793 125.698 45.4784 126.155 45.1979C126.62 44.9173 127.137 44.777 127.706 44.777C128.203 44.777 128.636 44.8772 129.005 45.0776C129.381 45.278 129.682 45.5305 129.907 45.8352V44.8852H131.602V51.5467H129.907V50.5727C129.69 50.8854 129.389 51.1459 129.005 51.3543C128.628 51.5547 128.191 51.6549 127.694 51.6549C127.133 51.6549 126.62 51.5106 126.155 51.222C125.698 50.9335 125.333 50.5286 125.061 50.0076C124.796 49.4785 124.664 48.8733 124.664 48.1919ZM129.907 48.216C129.907 47.8071 129.826 47.4584 129.666 47.1699C129.506 46.8733 129.289 46.6488 129.017 46.4965C128.744 46.3362 128.452 46.256 128.139 46.256C127.826 46.256 127.538 46.3322 127.273 46.4845C127.009 46.6368 126.792 46.8612 126.624 47.1578C126.464 47.4464 126.383 47.7911 126.383 48.1919C126.383 48.5927 126.464 48.9454 126.624 49.2501C126.792 49.5467 127.009 49.7751 127.273 49.9354C127.546 50.0958 127.834 50.1759 128.139 50.1759C128.452 50.1759 128.744 50.0998 129.017 49.9475C129.289 49.7871 129.506 49.5627 129.666 49.2741C129.826 48.9775 129.907 48.6248 129.907 48.216ZM136.938 44.7891C137.731 44.7891 138.372 45.0416 138.861 45.5466C139.35 46.0436 139.595 46.741 139.595 47.6388V51.5467H137.912V47.8673C137.912 47.3382 137.779 46.9334 137.515 46.6528C137.25 46.3642 136.889 46.2199 136.433 46.2199C135.968 46.2199 135.599 46.3642 135.326 46.6528C135.062 46.9334 134.929 47.3382 134.929 47.8673V51.5467H133.246V44.8852H134.929V45.7149C135.154 45.4263 135.439 45.2019 135.783 45.0416C136.136 44.8732 136.521 44.7891 136.938 44.7891ZM143.156 46.268V49.4905C143.156 49.715 143.208 49.8793 143.312 49.9835C143.424 50.0797 143.609 50.1278 143.865 50.1278H144.647V51.5467H143.589C142.17 51.5467 141.46 50.8573 141.46 49.4785V46.268H140.667V44.8852H141.46V43.2379H143.156V44.8852H144.647V46.268H143.156ZM152.05 48.0717C152.05 48.3122 152.034 48.5286 152.002 48.721H147.132C147.172 49.202 147.34 49.5787 147.637 49.8513C147.934 50.1238 148.298 50.2601 148.731 50.2601C149.357 50.2601 149.801 49.9916 150.066 49.4545H151.882C151.689 50.0958 151.321 50.6248 150.775 51.0417C150.23 51.4505 149.561 51.6549 148.767 51.6549C148.126 51.6549 147.549 51.5146 147.036 51.2341C146.531 50.9455 146.134 50.5407 145.845 50.0196C145.565 49.4986 145.425 48.8973 145.425 48.216C145.425 47.5266 145.565 46.9214 145.845 46.4003C146.126 45.8793 146.519 45.4784 147.024 45.1979C147.529 44.9173 148.11 44.777 148.767 44.777C149.401 44.777 149.966 44.9133 150.463 45.1859C150.968 45.4584 151.357 45.8472 151.629 46.3522C151.91 46.8492 152.05 47.4224 152.05 48.0717ZM150.306 47.5907C150.298 47.1578 150.142 46.8131 149.838 46.5566C149.533 46.2921 149.16 46.1598 148.719 46.1598C148.302 46.1598 147.95 46.2881 147.661 46.5446C147.381 46.7931 147.208 47.1418 147.144 47.5907H150.306Z" fill="white"/>
<path fill-rule="evenodd" clip-rule="evenodd" d="M23.5179 43.4283L18.9378 48.0084L19.7349 48.8056L24.315 44.2254L28.8951 48.8056L29.6922 48.0085L25.1121 43.4283L29.6925 38.848L28.8954 38.0509L24.315 42.6312L19.7346 38.0509L18.9375 38.848L23.5179 43.4283Z" fill="white"/>
<rect x="38.8354" y="405.97" width="133.723" height="27.4304" rx="13.7152" fill="white"/>
<path d="M74.0385 419.913C74.0385 419.285 74.1787 418.724 74.4591 418.23C74.7456 417.731 75.1326 417.344 75.6203 417.069C76.114 416.789 76.6657 416.649 77.2752 416.649C77.9884 416.649 78.6132 416.832 79.1497 417.197C79.6861 417.563 80.061 418.069 80.2743 418.715H78.8022C78.6559 418.41 78.4487 418.182 78.1804 418.029C77.9183 417.877 77.6136 417.801 77.2661 417.801C76.8943 417.801 76.5621 417.889 76.2695 418.066C75.983 418.237 75.7574 418.48 75.5929 418.797C75.4344 419.114 75.3551 419.486 75.3551 419.913C75.3551 420.333 75.4344 420.705 75.5929 421.028C75.7574 421.345 75.983 421.592 76.2695 421.769C76.5621 421.94 76.8943 422.025 77.2661 422.025C77.6136 422.025 77.9183 421.949 78.1804 421.796C78.4487 421.638 78.6559 421.406 78.8022 421.102H80.2743C80.061 421.754 79.6861 422.263 79.1497 422.628C78.6193 422.988 77.9945 423.168 77.2752 423.168C76.6657 423.168 76.114 423.031 75.6203 422.757C75.1326 422.476 74.7456 422.089 74.4591 421.595C74.1787 421.102 74.0385 420.541 74.0385 419.913ZM83.6169 423.195C83.1293 423.195 82.6904 423.089 82.3003 422.875C81.9102 422.656 81.6023 422.348 81.3768 421.952C81.1574 421.556 81.0476 421.098 81.0476 420.58C81.0476 420.062 81.1604 419.605 81.3859 419.209C81.6176 418.813 81.9315 418.508 82.3277 418.294C82.7239 418.075 83.1659 417.965 83.6535 417.965C84.1412 417.965 84.5831 418.075 84.9793 418.294C85.3755 418.508 85.6864 418.813 85.912 419.209C86.1436 419.605 86.2594 420.062 86.2594 420.58C86.2594 421.098 86.1405 421.556 85.9028 421.952C85.6712 422.348 85.3542 422.656 84.9519 422.875C84.5557 423.089 84.1107 423.195 83.6169 423.195ZM83.6169 422.08C83.8486 422.08 84.065 422.025 84.2661 421.915C84.4734 421.799 84.638 421.629 84.7599 421.403C84.8818 421.178 84.9427 420.903 84.9427 420.58C84.9427 420.099 84.8147 419.73 84.5587 419.474C84.3088 419.212 84.001 419.081 83.6352 419.081C83.2695 419.081 82.9617 419.212 82.7117 419.474C82.4679 419.73 82.346 420.099 82.346 420.58C82.346 421.062 82.4649 421.434 82.7026 421.696C82.9464 421.952 83.2512 422.08 83.6169 422.08ZM93.4891 417.974C94.1108 417.974 94.6107 418.166 94.9886 418.551C95.3726 418.928 95.5646 419.459 95.5646 420.141V423.113H94.2846V420.315C94.2846 419.919 94.184 419.617 93.9828 419.41C93.7817 419.197 93.5074 419.09 93.1599 419.09C92.8125 419.09 92.5351 419.197 92.3279 419.41C92.1267 419.617 92.0261 419.919 92.0261 420.315V423.113H90.7461V420.315C90.7461 419.919 90.6455 419.617 90.4443 419.41C90.2432 419.197 89.9689 419.09 89.6214 419.09C89.2679 419.09 88.9875 419.197 88.7802 419.41C88.5791 419.617 88.4785 419.919 88.4785 420.315V423.113H87.1984V418.048H88.4785V418.66C88.6431 418.447 88.8534 418.279 89.1094 418.157C89.3715 418.035 89.658 417.974 89.9689 417.974C90.3651 417.974 90.7186 418.06 91.0295 418.23C91.3404 418.395 91.5812 418.633 91.7518 418.944C91.9164 418.651 92.1541 418.416 92.465 418.24C92.782 418.063 93.1233 417.974 93.4891 417.974ZM98.0595 418.779C98.224 418.547 98.4496 418.355 98.7361 418.203C99.0287 418.045 99.3609 417.965 99.7327 417.965C100.165 417.965 100.556 418.072 100.903 418.285C101.257 418.499 101.534 418.803 101.735 419.2C101.942 419.59 102.046 420.044 102.046 420.562C102.046 421.08 101.942 421.54 101.735 421.943C101.534 422.339 101.257 422.647 100.903 422.866C100.556 423.086 100.165 423.195 99.7327 423.195C99.3609 423.195 99.0317 423.119 98.7452 422.967C98.4648 422.814 98.2362 422.622 98.0595 422.391V425.527H96.7794V418.048H98.0595V418.779ZM100.738 420.562C100.738 420.257 100.674 419.995 100.546 419.776C100.425 419.55 100.26 419.38 100.053 419.264C99.8516 419.148 99.6321 419.09 99.3944 419.09C99.1628 419.09 98.9433 419.151 98.7361 419.273C98.5349 419.389 98.3703 419.559 98.2423 419.785C98.1204 420.01 98.0595 420.276 98.0595 420.58C98.0595 420.885 98.1204 421.15 98.2423 421.376C98.3703 421.601 98.5349 421.775 98.7361 421.897C98.9433 422.013 99.1628 422.071 99.3944 422.071C99.6321 422.071 99.8516 422.01 100.053 421.888C100.26 421.766 100.425 421.592 100.546 421.367C100.674 421.141 100.738 420.873 100.738 420.562ZM102.647 420.562C102.647 420.05 102.748 419.596 102.949 419.2C103.156 418.803 103.433 418.499 103.781 418.285C104.134 418.072 104.528 417.965 104.96 417.965C105.338 417.965 105.667 418.042 105.948 418.194C106.234 418.346 106.463 418.538 106.634 418.77V418.048H107.923V423.113H106.634V422.372C106.469 422.61 106.24 422.808 105.948 422.967C105.661 423.119 105.329 423.195 104.951 423.195C104.524 423.195 104.134 423.086 103.781 422.866C103.433 422.647 103.156 422.339 102.949 421.943C102.748 421.54 102.647 421.08 102.647 420.562ZM106.634 420.58C106.634 420.269 106.573 420.004 106.451 419.785C106.329 419.559 106.164 419.389 105.957 419.273C105.75 419.151 105.527 419.09 105.289 419.09C105.052 419.09 104.832 419.148 104.631 419.264C104.43 419.38 104.265 419.55 104.137 419.776C104.016 419.995 103.955 420.257 103.955 420.562C103.955 420.867 104.016 421.135 104.137 421.367C104.265 421.592 104.43 421.766 104.631 421.888C104.838 422.01 105.058 422.071 105.289 422.071C105.527 422.071 105.75 422.013 105.957 421.897C106.164 421.775 106.329 421.604 106.451 421.385C106.573 421.159 106.634 420.891 106.634 420.58ZM110.453 418.834C110.618 418.566 110.831 418.355 111.093 418.203C111.361 418.051 111.666 417.974 112.008 417.974V419.319H111.669C111.267 419.319 110.962 419.413 110.755 419.602C110.554 419.791 110.453 420.12 110.453 420.59V423.113H109.173V418.048H110.453V418.834ZM114.36 419.099V421.55C114.36 421.72 114.4 421.845 114.479 421.924C114.564 421.998 114.704 422.034 114.9 422.034H115.494V423.113H114.689C113.61 423.113 113.071 422.589 113.071 421.54V419.099H112.467V418.048H113.071V416.795H114.36V418.048H115.494V419.099H114.36ZM117.064 417.444C116.838 417.444 116.649 417.374 116.497 417.234C116.351 417.088 116.277 416.908 116.277 416.694C116.277 416.481 116.351 416.304 116.497 416.164C116.649 416.018 116.838 415.945 117.064 415.945C117.289 415.945 117.475 416.018 117.622 416.164C117.774 416.304 117.85 416.481 117.85 416.694C117.85 416.908 117.774 417.088 117.622 417.234C117.475 417.374 117.289 417.444 117.064 417.444ZM117.695 418.048V423.113H116.415V418.048H117.695ZM120.239 416.347V423.113H118.959V416.347H120.239ZM124.357 417.974C124.741 417.974 125.082 418.06 125.381 418.23C125.68 418.395 125.911 418.642 126.076 418.971C126.247 419.294 126.332 419.684 126.332 420.141V423.113H125.052V420.315C125.052 419.913 124.951 419.605 124.75 419.392C124.549 419.172 124.275 419.063 123.927 419.063C123.574 419.063 123.293 419.172 123.086 419.392C122.885 419.605 122.784 419.913 122.784 420.315V423.113H121.504V416.347H122.784V418.679C122.949 418.459 123.168 418.288 123.443 418.166C123.717 418.038 124.022 417.974 124.357 417.974ZM127.22 420.562C127.22 420.05 127.321 419.596 127.522 419.2C127.729 418.803 128.006 418.499 128.354 418.285C128.707 418.072 129.101 417.965 129.533 417.965C129.911 417.965 130.24 418.042 130.521 418.194C130.807 418.346 131.036 418.538 131.207 418.77V418.048H132.496V423.113H131.207V422.372C131.042 422.61 130.813 422.808 130.521 422.967C130.234 423.119 129.902 423.195 129.524 423.195C129.098 423.195 128.707 423.086 128.354 422.866C128.006 422.647 127.729 422.339 127.522 421.943C127.321 421.54 127.22 421.08 127.22 420.562ZM131.207 420.58C131.207 420.269 131.146 420.004 131.024 419.785C130.902 419.559 130.737 419.389 130.53 419.273C130.323 419.151 130.1 419.09 129.863 419.09C129.625 419.09 129.405 419.148 129.204 419.264C129.003 419.38 128.838 419.55 128.71 419.776C128.589 419.995 128.528 420.257 128.528 420.562C128.528 420.867 128.589 421.135 128.71 421.367C128.838 421.592 129.003 421.766 129.204 421.888C129.411 422.01 129.631 422.071 129.863 422.071C130.1 422.071 130.323 422.013 130.53 421.897C130.737 421.775 130.902 421.604 131.024 421.385C131.146 421.159 131.207 420.891 131.207 420.58ZM135.026 418.834C135.191 418.566 135.404 418.355 135.666 418.203C135.934 418.051 136.239 417.974 136.581 417.974V419.319H136.242C135.84 419.319 135.535 419.413 135.328 419.602C135.127 419.791 135.026 420.12 135.026 420.59V423.113H133.746V418.048H135.026V418.834Z" fill="#01A5F0"/>
<path fill-rule="evenodd" clip-rule="evenodd" d="M53.5207 65.9932C53.6609 66.3005 54.0974 66.3005 54.2376 65.9932L56.9708 60H57.2445L59.9778 65.9932C60.1179 66.3005 60.5544 66.3005 60.6946 65.9932L63.4279 60H63.701L66.4343 65.9932C66.5744 66.3005 67.011 66.3005 67.1511 65.9932L69.8844 60H70.1571L72.8904 65.9932C73.0305 66.3005 73.467 66.3005 73.6072 65.9932L76.3405 60H76.6146L79.3479 65.9932C79.488 66.3005 79.9246 66.3005 80.0647 65.9932L82.798 60H83.0707L85.8039 65.9932C85.9441 66.3005 86.3806 66.3005 86.5208 65.9932L89.254 60H89.5272L92.2605 65.9932C92.4006 66.3005 92.8372 66.3005 92.9773 65.9932L95.7106 60H95.9838L98.717 65.9932C98.8572 66.3005 99.2937 66.3005 99.4339 65.9932L102.167 60H102.44L105.174 65.9932C105.314 66.3005 105.75 66.3005 105.89 65.9932L108.624 60H108.897L111.631 65.9932C111.771 66.3005 112.207 66.3005 112.347 65.9932L115.081 60H115.354L118.087 65.9932C118.227 66.3005 118.664 66.3005 118.804 65.9932L121.537 60H121.81L124.543 65.9933C124.683 66.3006 125.12 66.3006 125.26 65.9933L127.993 60H128.267L131 65.9933C131.14 66.3006 131.577 66.3006 131.717 65.9933L134.45 60H134.724L137.457 65.9933C137.597 66.3006 138.034 66.3006 138.174 65.9933L140.907 60H141.18L143.913 65.9933C144.053 66.3006 144.49 66.3006 144.63 65.9933L147.363 60H147.637L150.37 65.9933C150.51 66.3006 150.947 66.3006 151.087 65.9933L153.82 60H154.094L156.827 65.9933C156.968 66.3006 157.404 66.3006 157.544 65.9933L160.278 60H160.55L163.283 65.9933C163.423 66.3006 163.86 66.3006 164 65.9933L166.733 60H167.006L169.739 65.9933C169.88 66.3006 170.316 66.3006 170.456 65.9933L173.19 60H173.478L176.212 65.9933C176.352 66.3006 176.788 66.3006 176.928 65.9933L179.662 60H179.951L182.684 65.9933C182.824 66.3006 183.261 66.3006 183.401 65.9933L186.134 60H186.422L189.155 65.9933C189.295 66.3006 189.732 66.3006 189.872 65.9933L192.605 60H193V375.934H18V60H18.5047L21.238 65.9933C21.3782 66.3006 21.8147 66.3006 21.9548 65.9933L24.6882 60H24.9612L27.6946 65.9933C27.8347 66.3006 28.2712 66.3006 28.4114 65.9933L31.1447 60H31.4183L34.1516 65.9933C34.2917 66.3006 34.7283 66.3006 34.8684 65.9933L37.6017 60H37.8748L40.6081 65.9933C40.7483 66.3006 41.1848 66.3006 41.325 65.9933L44.0583 60H44.3314L47.0647 65.9933C47.2048 66.3006 47.6414 66.3006 47.7815 65.9933L50.5148 60H50.7875L53.5207 65.9932Z" fill="#FBF9BE"/>
<path fill-rule="evenodd" clip-rule="evenodd" d="M104.711 93.9886C104.846 93.8484 104.953 93.6824 105.024 93.5004C105.095 93.3183 105.13 93.1238 105.126 92.9283C105.121 92.7327 105.078 92.5399 104.999 92.3611C104.92 92.1824 104.807 92.0213 104.665 91.8872C103.769 91.0332 102.645 90.4603 101.43 90.2384C100.215 90.0166 98.9627 90.1555 97.8253 90.6381C96.6879 91.1207 95.7149 91.9262 95.0256 92.9559C94.3362 93.9856 93.9601 95.1951 93.9435 96.4362C93.9601 97.6774 94.3362 98.8868 95.0256 99.9166C95.7149 100.946 96.6879 101.752 97.8253 102.234C98.9627 102.717 100.215 102.856 101.43 102.634C102.645 102.412 103.769 101.839 104.665 100.985C104.807 100.851 104.92 100.69 104.999 100.511C105.078 100.333 105.121 100.14 105.126 99.9442C105.13 99.7486 105.095 99.5542 105.024 99.3721C104.953 99.1901 104.846 99.0241 104.711 98.8839C104.435 98.5993 104.058 98.4352 103.663 98.4267C103.268 98.4183 102.885 98.5663 102.598 98.8389C101.959 99.4444 101.112 99.7762 100.234 99.7639C99.3569 99.7516 98.5187 99.3962 97.8975 98.773C97.5918 98.4664 97.3493 98.1022 97.1838 97.7012C97.0183 97.3002 96.9332 96.8704 96.9332 96.4362C96.9332 96.0021 97.0183 95.5723 97.1838 95.1713C97.3493 94.7703 97.5918 94.4061 97.8975 94.0995C98.5187 93.4763 99.3569 93.1208 100.234 93.1085C101.112 93.0962 101.959 93.4281 102.598 94.0336C102.885 94.3062 103.268 94.4542 103.663 94.4457C104.059 94.4372 104.435 94.2729 104.711 93.9881V93.9886ZM112.684 90.1367C111.013 90.1291 109.408 90.7881 108.219 91.9692C107.031 93.1503 106.357 94.7571 106.346 96.4371C106.346 98.1274 107.014 99.7484 108.202 100.944C109.391 102.139 111.003 102.81 112.684 102.81C114.365 102.81 115.978 102.139 117.166 100.944C118.355 99.7484 119.023 98.1274 119.023 96.4371C119.011 94.7571 118.338 93.1503 117.149 91.9692C115.961 90.7881 114.355 90.1291 112.684 90.1367ZM112.684 99.7647C112.031 99.7573 111.395 99.5557 110.856 99.1855C110.316 98.8153 109.898 98.293 109.653 97.6842C109.408 97.0754 109.348 96.4075 109.48 95.7644C109.612 95.1214 109.93 94.5319 110.395 94.0703C110.859 93.6086 111.449 93.2954 112.09 93.1701C112.731 93.0448 113.395 93.1129 113.997 93.3659C114.6 93.619 115.115 94.0456 115.477 94.5921C115.839 95.1386 116.032 95.7805 116.032 96.4371C116.029 96.8766 115.941 97.3113 115.771 97.7164C115.602 98.1215 115.354 98.489 115.044 98.798C114.733 99.107 114.364 99.3514 113.96 99.5173C113.555 99.6832 113.121 99.7672 112.684 99.7647ZM127.703 90.1367C125.812 90.1288 123.996 90.8749 122.651 92.2114C121.307 93.5479 120.545 95.3658 120.532 97.2665C120.53 98.2041 120.715 99.1325 121.075 99.9973C121.436 100.862 121.964 101.646 122.63 102.302C122.912 102.581 123.291 102.737 123.686 102.737C124.081 102.737 124.461 102.581 124.742 102.302C124.881 102.165 124.991 102.002 125.067 101.821C125.142 101.641 125.18 101.447 125.18 101.251C125.18 101.056 125.142 100.862 125.067 100.682C124.991 100.501 124.881 100.337 124.742 100.2C124.355 99.8167 124.047 99.3593 123.836 98.8549C123.626 98.3505 123.518 97.809 123.518 97.262C123.518 96.7151 123.626 96.1736 123.836 95.6691C124.047 95.1647 124.355 94.7074 124.742 94.3238C125.531 93.544 126.592 93.107 127.698 93.107C128.804 93.107 129.866 93.544 130.654 94.3238C131.042 94.7074 131.35 95.1647 131.56 95.6691C131.771 96.1736 131.879 96.7151 131.879 97.262C131.879 97.809 131.771 98.3505 131.56 98.8549C131.35 99.3593 131.042 99.8167 130.654 100.2C130.515 100.337 130.405 100.501 130.33 100.681C130.255 100.862 130.216 101.055 130.216 101.251C130.216 101.447 130.255 101.64 130.33 101.821C130.405 102.001 130.515 102.165 130.654 102.302C130.936 102.581 131.315 102.737 131.711 102.737C132.106 102.737 132.485 102.581 132.767 102.302C133.434 101.646 133.964 100.863 134.326 99.9981C134.688 99.1334 134.874 98.2047 134.874 97.2665C134.861 95.3656 134.099 93.5476 132.754 92.2111C131.41 90.8746 129.593 90.1286 127.703 90.1367ZM80.1493 92.212C81.4936 90.8755 83.3102 90.1295 85.2007 90.1375C87.0912 90.1295 88.9078 90.8755 90.2521 92.212C91.5964 93.5485 92.3588 95.3665 92.3721 97.2673C92.3721 98.2054 92.1857 99.134 91.8238 99.9987C91.4619 100.863 90.9319 101.647 90.2647 102.302C89.9829 102.581 89.6035 102.737 89.2083 102.737C88.8131 102.737 88.4338 102.581 88.1519 102.302C88.0132 102.165 87.903 102.002 87.8278 101.821C87.7527 101.641 87.7139 101.447 87.7139 101.251C87.7139 101.056 87.7527 100.862 87.8278 100.681C87.903 100.501 88.0132 100.337 88.1519 100.2C88.5398 99.8166 88.8479 99.3592 89.0582 98.8548C89.2684 98.3503 89.3767 97.8087 89.3767 97.2617C89.3767 96.7147 89.2684 96.1732 89.0582 95.6687C88.8479 95.1642 88.5398 94.7069 88.1519 94.3233C87.3635 93.5435 86.3018 93.1064 85.1958 93.1064C84.0898 93.1064 83.0282 93.5435 82.2398 94.3233C81.8519 94.7069 81.5438 95.1642 81.3335 95.6687C81.1232 96.1732 81.0149 96.7147 81.0149 97.2617C81.0149 97.8087 81.1232 98.3503 81.3335 98.8548C81.5438 99.3592 81.8519 99.8166 82.2398 100.2C82.3785 100.337 82.4886 100.501 82.5638 100.681C82.639 100.862 82.6777 101.056 82.6777 101.251C82.6777 101.447 82.639 101.641 82.5638 101.821C82.4886 102.002 82.3785 102.165 82.2398 102.302C81.9579 102.581 81.5785 102.737 81.1833 102.737C80.7882 102.737 80.4088 102.581 80.1269 102.302C79.4615 101.646 78.9333 100.862 78.5731 99.9975C78.2129 99.1329 78.028 98.2047 78.0293 97.2673C78.0426 95.3665 78.805 93.5485 80.1493 92.212ZM101.775 96.4285C101.78 97.2488 101.114 97.9175 100.289 97.9221C99.4639 97.9267 98.7913 97.2654 98.7868 96.4451C98.7823 95.6248 99.4476 94.956 100.273 94.9514C101.098 94.9469 101.771 95.6081 101.775 96.4285Z" fill="#0073CE"/>
<path d="M55.1415 122.245C56.1437 122.245 57.0135 121.82 57.5902 121.139L56.9662 120.609C56.5313 121.12 55.8695 121.451 55.1415 121.451C53.7706 121.451 52.6928 120.297 52.6928 118.908C52.6928 117.508 53.7706 116.364 55.1415 116.364C55.8695 116.364 56.5313 116.695 56.9662 117.206L57.5902 116.676C57.0135 115.996 56.1437 115.57 55.1415 115.57C53.2979 115.57 51.8325 117.064 51.8325 118.908C51.8325 120.751 53.2979 122.245 55.1415 122.245ZM60.5829 122.245C61.8404 122.245 62.8993 121.328 62.8993 119.929C62.8993 118.529 61.8404 117.641 60.5829 117.641C59.3255 117.641 58.2761 118.529 58.2761 119.929C58.2761 121.328 59.3255 122.245 60.5829 122.245ZM60.5829 121.47C59.7793 121.47 59.108 120.846 59.108 119.929C59.108 119.021 59.7793 118.416 60.5829 118.416C61.396 118.416 62.0767 119.021 62.0767 119.929C62.0767 120.846 61.396 121.47 60.5829 121.47ZM69.2821 117.641C68.8378 117.641 68.1382 117.773 67.7411 118.558C67.4858 117.972 66.928 117.641 66.2851 117.641C65.6611 117.641 65.0938 117.934 64.8669 118.407V117.735H64.0444V122.15H64.8669V119.759C64.8669 118.823 65.4909 118.435 66.1149 118.435C66.7011 118.435 67.1076 118.898 67.1076 119.645V122.15H67.9302V119.9L67.9396 119.938C67.864 119.087 68.3367 118.425 69.1214 118.435C69.7643 118.435 70.1708 118.908 70.1708 119.645V122.15H70.9934V119.598C70.9934 118.359 70.3883 117.641 69.2821 117.641ZM74.7551 117.641C74.1217 117.641 73.4788 117.924 73.1857 118.435V117.735H72.3632V124.297H73.1857V121.46C73.4788 121.98 74.1028 122.245 74.7646 122.245C75.9747 122.245 76.9674 121.347 76.9674 119.948C76.9674 118.558 75.9653 117.641 74.7551 117.641ZM74.6795 121.47C73.9609 121.47 73.1857 120.912 73.1857 119.957C73.1857 119.012 73.8948 118.416 74.6795 118.416C75.4925 118.416 76.1354 119.078 76.1354 119.957C76.1354 120.846 75.4925 121.47 74.6795 121.47ZM80.1857 117.641C79.5995 117.641 79.1741 117.962 78.9472 118.737V117.735H78.1152V122.15H78.9472V120.534C78.9472 119.371 79.297 118.435 80.1762 118.435C80.3464 118.435 80.5828 118.473 80.8191 118.586L80.9515 117.811C80.8191 117.726 80.4977 117.641 80.1857 117.641ZM83.6464 122.245C84.9039 122.245 85.9627 121.328 85.9627 119.929C85.9627 118.529 84.9039 117.641 83.6464 117.641C82.389 117.641 81.3396 118.529 81.3396 119.929C81.3396 121.328 82.389 122.245 83.6464 122.245ZM83.6464 121.47C82.8428 121.47 82.1715 120.846 82.1715 119.929C82.1715 119.021 82.8428 118.416 83.6464 118.416C84.4595 118.416 85.1402 119.021 85.1402 119.929C85.1402 120.846 84.4595 121.47 83.6464 121.47ZM90.0131 117.735L88.6611 121.101L87.2997 117.735H86.4204L88.2545 122.15H89.0582L90.9018 117.735H90.0131ZM95.1391 117.735V118.425C94.846 117.905 94.222 117.641 93.5602 117.641C92.3501 117.641 91.3574 118.539 91.3574 119.938C91.3574 121.328 92.3595 122.245 93.5697 122.245C94.2031 122.245 94.846 121.961 95.1391 121.451V122.15H95.9616V117.735H95.1391ZM93.6359 121.47C92.8322 121.47 92.1893 120.808 92.1893 119.929C92.1893 119.04 92.8322 118.416 93.6359 118.416C94.3638 118.416 95.1391 118.974 95.1391 119.929C95.1391 120.874 94.43 121.47 93.6359 121.47ZM99.6904 117.641C99.2083 117.641 98.4897 117.868 98.225 118.407V117.735H97.4025V122.15H98.225V119.759C98.225 118.804 98.9624 118.454 99.577 118.454C100.192 118.454 100.645 118.908 100.645 119.645V122.15H101.468V119.598C101.477 118.359 100.787 117.641 99.6904 117.641ZM104.903 117.735H103.948V116.062H103.126V117.735H102.331V118.444H103.126V122.15H103.948V118.444H104.903V117.735ZM109.89 119.929C109.89 118.529 108.954 117.641 107.697 117.641C106.44 117.641 105.428 118.529 105.428 119.929C105.428 121.328 106.44 122.245 107.697 122.245C108.548 122.245 109.342 121.848 109.73 121.082L109.011 120.799C108.765 121.243 108.264 121.47 107.725 121.47C106.969 121.47 106.402 121.082 106.279 120.297H109.871C109.881 120.175 109.89 120.052 109.89 119.929ZM106.288 119.588C106.421 118.794 106.95 118.416 107.697 118.416C108.425 118.416 108.964 118.832 109.068 119.588H106.288ZM113.309 120.345H116.589V119.551H113.309V120.345ZM121.9 120.988L123.356 119.314C123.753 118.87 124.036 118.34 124.036 117.745C124.036 116.62 123.233 115.873 121.994 115.873C120.756 115.873 120.037 116.629 119.886 117.735L121.011 117.924C121.087 117.385 121.399 117.026 121.947 117.026C122.429 117.026 122.77 117.319 122.77 117.735C122.77 117.943 122.599 118.265 122.344 118.577L119.924 121.479V122.15H124.093V120.988H121.9ZM127.384 122.236C129.18 122.236 129.672 120.827 129.672 119.068C129.672 117.281 129.18 115.873 127.384 115.873C125.578 115.873 125.077 117.281 125.077 119.068C125.077 120.827 125.578 122.236 127.384 122.236ZM127.384 121.082C126.58 121.082 126.334 120.193 126.334 119.068C126.334 117.924 126.58 117.026 127.384 117.026C128.178 117.026 128.414 117.924 128.414 119.068C128.414 120.193 128.178 121.082 127.384 121.082ZM132.573 120.988L134.029 119.314C134.426 118.87 134.71 118.34 134.71 117.745C134.71 116.62 133.906 115.873 132.667 115.873C131.429 115.873 130.71 116.629 130.559 117.735L131.684 117.924C131.76 117.385 132.072 117.026 132.62 117.026C133.102 117.026 133.443 117.319 133.443 117.735C133.443 117.943 133.272 118.265 133.017 118.577L130.597 121.479V122.15H134.766V120.988H132.573ZM138 115.873C136.62 115.873 135.712 116.771 135.712 117.953C135.712 119.031 136.544 119.948 137.802 119.948C138.397 119.948 138.842 119.73 139.144 119.428C139.097 120.392 138.549 121.082 137.773 121.082C137.367 121.082 136.989 120.874 136.79 120.458L135.788 121.007C136.166 121.848 136.97 122.236 137.783 122.236C139.522 122.236 140.402 120.676 140.402 118.841C140.402 117.083 139.447 115.873 138 115.873ZM137.972 118.898C137.386 118.889 136.97 118.501 136.97 117.962C136.97 117.414 137.395 117.026 138.01 117.026C138.615 117.036 139.04 117.433 139.04 117.981C139.031 118.52 138.586 118.898 137.972 118.898ZM146.148 119.863H145.202V115.958H144.465L140.957 120.6V120.969H143.945V122.15H145.202V120.969H146.148V119.863ZM142.725 119.863L143.945 118.227V119.863H142.725ZM149.255 115.873C147.875 115.873 146.967 116.771 146.967 117.953C146.967 119.031 147.799 119.948 149.057 119.948C149.652 119.948 150.096 119.73 150.399 119.428C150.352 120.392 149.803 121.082 149.028 121.082C148.622 121.082 148.243 120.874 148.045 120.458L147.043 121.007C147.421 121.848 148.225 122.236 149.038 122.236C150.777 122.236 151.656 120.676 151.656 118.841C151.656 117.083 150.702 115.873 149.255 115.873ZM149.227 118.898C148.641 118.889 148.225 118.501 148.225 117.962C148.225 117.414 148.65 117.026 149.264 117.026C149.87 117.036 150.295 117.433 150.295 117.981C150.286 118.52 149.841 118.898 149.227 118.898ZM154.935 115.873L152.363 116.941V118.104L153.791 117.556V122.15H155.039V115.873H154.935ZM158.628 122.236C160.424 122.236 160.916 120.827 160.916 119.068C160.916 117.281 160.424 115.873 158.628 115.873C156.822 115.873 156.321 117.281 156.321 119.068C156.321 120.827 156.822 122.236 158.628 122.236ZM158.628 121.082C157.824 121.082 157.578 120.193 157.578 119.068C157.578 117.924 157.824 117.026 158.628 117.026C159.422 117.026 159.658 117.924 159.658 119.068C159.658 120.193 159.422 121.082 158.628 121.082Z" fill="#0073CE"/>
<path d="M73.7983 165.876H71.7671V160.146H73.8151C74.3914 160.146 74.8875 160.261 75.3035 160.49C75.7194 160.718 76.0393 161.045 76.2631 161.472C76.4888 161.899 76.6017 162.41 76.6017 163.005C76.6017 163.602 76.4888 164.115 76.2631 164.544C76.0393 164.973 75.7176 165.302 75.2979 165.532C74.8801 165.761 74.3802 165.876 73.7983 165.876ZM72.9785 164.838H73.7479C74.106 164.838 74.4073 164.775 74.6516 164.648C74.8978 164.519 75.0825 164.32 75.2056 164.052C75.3305 163.781 75.393 163.433 75.393 163.005C75.393 162.582 75.3305 162.236 75.2056 161.967C75.0825 161.699 74.8987 161.501 74.6544 161.374C74.4101 161.247 74.1088 161.184 73.7507 161.184H72.9785V164.838ZM77.4991 165.876V160.146H81.3601V161.145H78.7105V162.51H81.1614V163.509H78.7105V164.877H81.3713V165.876H77.4991ZM85.4365 165.876L83.797 160.146H85.1203L86.0688 164.127H86.1163L87.1627 160.146H88.2958L89.3394 164.136H89.3898L90.3382 160.146H91.6616L90.0221 165.876H88.8414L87.7503 162.13H87.7055L86.6172 165.876H85.4365ZM92.7206 165.876H91.4224L93.4005 160.146H94.9616L96.9369 165.876H95.6387L94.2034 161.455H94.1587L92.7206 165.876ZM92.6394 163.624H95.7059V164.569H92.6394V163.624ZM97.6266 165.876V160.146H98.838V164.877H101.294V165.876H97.6266ZM102.097 165.876V160.146H103.308V164.877H105.765V165.876H102.097ZM107.701 165.876H106.403L108.381 160.146H109.942L111.917 165.876H110.619L109.184 161.455H109.139L107.701 165.876ZM107.62 163.624H110.686V164.569H107.62V163.624ZM117.393 162.152H116.168C116.145 161.994 116.1 161.853 116.031 161.73C115.962 161.605 115.873 161.498 115.765 161.411C115.657 161.323 115.532 161.256 115.39 161.209C115.25 161.163 115.098 161.139 114.934 161.139C114.637 161.139 114.379 161.213 114.159 161.36C113.939 161.506 113.768 161.718 113.647 161.998C113.526 162.276 113.465 162.614 113.465 163.011C113.465 163.42 113.526 163.763 113.647 164.041C113.77 164.319 113.942 164.528 114.162 164.67C114.382 164.812 114.636 164.883 114.925 164.883C115.088 164.883 115.238 164.861 115.376 164.818C115.516 164.776 115.64 164.713 115.748 164.631C115.856 164.547 115.946 164.445 116.017 164.326C116.089 164.207 116.14 164.07 116.168 163.918L117.393 163.923C117.361 164.186 117.282 164.44 117.155 164.684C117.03 164.927 116.862 165.144 116.649 165.336C116.438 165.526 116.186 165.677 115.893 165.789C115.603 165.899 115.273 165.954 114.906 165.954C114.395 165.954 113.938 165.839 113.535 165.607C113.134 165.376 112.817 165.041 112.584 164.603C112.352 164.165 112.237 163.634 112.237 163.011C112.237 162.386 112.354 161.855 112.589 161.416C112.824 160.978 113.143 160.644 113.546 160.415C113.949 160.183 114.402 160.068 114.906 160.068C115.238 160.068 115.546 160.114 115.829 160.208C116.115 160.301 116.367 160.437 116.587 160.616C116.807 160.793 116.986 161.011 117.125 161.268C117.264 161.525 117.354 161.82 117.393 162.152ZM118.262 165.876V160.146H122.123V161.145H119.473V162.51H121.924V163.509H119.473V164.877H122.134V165.876H118.262ZM124.909 165.876V160.146H127.204C127.625 160.146 127.977 160.209 128.258 160.334C128.54 160.458 128.752 160.632 128.894 160.854C129.035 161.074 129.106 161.328 129.106 161.615C129.106 161.839 129.061 162.036 128.972 162.205C128.882 162.373 128.759 162.511 128.603 162.619C128.448 162.726 128.271 162.801 128.071 162.846V162.902C128.289 162.911 128.493 162.973 128.684 163.087C128.876 163.2 129.032 163.36 129.151 163.565C129.27 163.768 129.33 164.011 129.33 164.292C129.33 164.596 129.254 164.868 129.103 165.107C128.954 165.343 128.733 165.531 128.44 165.669C128.147 165.807 127.787 165.876 127.358 165.876H124.909ZM126.121 164.886H127.109C127.446 164.886 127.692 164.821 127.847 164.693C128.002 164.562 128.079 164.388 128.079 164.172C128.079 164.014 128.041 163.874 127.965 163.752C127.888 163.631 127.779 163.536 127.637 163.467C127.497 163.398 127.33 163.364 127.136 163.364H126.121V164.886ZM126.121 162.544H127.019C127.185 162.544 127.332 162.515 127.461 162.457C127.592 162.397 127.694 162.313 127.769 162.205C127.845 162.097 127.884 161.967 127.884 161.816C127.884 161.609 127.81 161.442 127.662 161.316C127.517 161.189 127.31 161.125 127.041 161.125H126.121V162.544ZM130.793 165.949C130.608 165.949 130.449 165.883 130.317 165.753C130.186 165.62 130.121 165.462 130.121 165.277C130.121 165.094 130.186 164.938 130.317 164.807C130.449 164.677 130.608 164.611 130.793 164.611C130.972 164.611 131.128 164.677 131.263 164.807C131.397 164.938 131.464 165.094 131.464 165.277C131.464 165.4 131.432 165.513 131.369 165.616C131.307 165.717 131.226 165.798 131.125 165.859C131.025 165.919 130.914 165.949 130.793 165.949ZM136.05 165.876H134.019V160.146H136.067C136.643 160.146 137.14 160.261 137.556 160.49C137.972 160.718 138.291 161.045 138.515 161.472C138.741 161.899 138.854 162.41 138.854 163.005C138.854 163.602 138.741 164.115 138.515 164.544C138.291 164.973 137.97 165.302 137.55 165.532C137.132 165.761 136.632 165.876 136.05 165.876ZM135.231 164.838H136C136.358 164.838 136.659 164.775 136.904 164.648C137.15 164.519 137.335 164.32 137.458 164.052C137.583 163.781 137.645 163.433 137.645 163.005C137.645 162.582 137.583 162.236 137.458 161.967C137.335 161.699 137.151 161.501 136.906 161.374C136.662 161.247 136.361 161.184 136.003 161.184H135.231V164.838ZM140.416 165.876H139.117L141.095 160.146H142.657L144.632 165.876H143.334L141.898 161.455H141.854L140.416 165.876ZM140.334 163.624H143.401V164.569H140.334V163.624ZM150.253 161.794C150.231 161.568 150.135 161.393 149.965 161.268C149.796 161.143 149.565 161.081 149.274 161.081C149.076 161.081 148.91 161.109 148.773 161.164C148.637 161.219 148.533 161.294 148.46 161.391C148.389 161.488 148.354 161.598 148.354 161.721C148.35 161.824 148.371 161.913 148.418 161.99C148.467 162.066 148.533 162.133 148.617 162.188C148.701 162.243 148.798 162.29 148.908 162.331C149.018 162.37 149.135 162.404 149.26 162.432L149.775 162.555C150.025 162.611 150.254 162.686 150.463 162.779C150.672 162.872 150.853 162.987 151.006 163.123C151.159 163.259 151.277 163.42 151.361 163.604C151.447 163.789 151.491 164.001 151.493 164.239C151.491 164.59 151.401 164.894 151.224 165.151C151.049 165.407 150.795 165.606 150.463 165.747C150.133 165.887 149.735 165.957 149.269 165.957C148.806 165.957 148.403 165.886 148.06 165.744C147.719 165.603 147.452 165.393 147.26 165.115C147.07 164.835 146.97 164.489 146.96 164.077H148.133C148.146 164.269 148.201 164.43 148.298 164.558C148.397 164.685 148.528 164.781 148.692 164.846C148.858 164.91 149.046 164.942 149.255 164.942C149.46 164.942 149.638 164.912 149.789 164.852C149.942 164.792 150.06 164.709 150.144 164.603C150.228 164.497 150.27 164.374 150.27 164.236C150.27 164.108 150.232 164 150.156 163.912C150.081 163.824 149.971 163.75 149.825 163.688C149.682 163.627 149.505 163.571 149.297 163.52L148.673 163.364C148.19 163.246 147.808 163.062 147.528 162.812C147.249 162.562 147.11 162.226 147.111 161.802C147.11 161.455 147.202 161.152 147.388 160.893C147.577 160.634 147.835 160.431 148.163 160.286C148.492 160.14 148.865 160.068 149.283 160.068C149.708 160.068 150.079 160.14 150.396 160.286C150.715 160.431 150.963 160.634 151.14 160.893C151.318 161.152 151.409 161.453 151.415 161.794H150.253ZM153.519 160.146V165.876H152.308V160.146H153.519ZM154.516 165.876V160.146H155.727V164.877H158.184V165.876H154.516ZM159.406 160.146L160.791 164.499H160.844L162.232 160.146H163.575L161.599 165.876H160.038L158.06 160.146H159.406ZM164.49 165.876H163.192L165.17 160.146H166.731L168.706 165.876H167.408L165.973 161.455H165.928L164.49 165.876ZM164.409 163.624H167.475V164.569H164.409V163.624Z" fill="#855B35"/>
<path d="M71.7671 272.876V267.146H74.0277C74.4623 267.146 74.8325 267.229 75.1384 267.395C75.4443 267.559 75.6775 267.788 75.8379 268.081C76.0001 268.371 76.0813 268.707 76.0813 269.088C76.0813 269.468 75.9992 269.804 75.8351 270.095C75.6709 270.386 75.4331 270.613 75.1216 270.775C74.812 270.937 74.4371 271.018 73.9969 271.018H72.556V270.047H73.8011C74.0342 270.047 74.2263 270.007 74.3774 269.927C74.5304 269.845 74.6441 269.732 74.7187 269.589C74.7952 269.443 74.8335 269.276 74.8335 269.088C74.8335 268.897 74.7952 268.731 74.7187 268.59C74.6441 268.446 74.5304 268.335 74.3774 268.257C74.2245 268.177 74.0305 268.136 73.7955 268.136H72.9785V272.876H71.7671ZM77.1941 272.876H75.8959L77.874 267.146H79.4352L81.4104 272.876H80.1122L78.677 268.455H78.6322L77.1941 272.876ZM77.113 270.624H80.1794V271.569H77.113V270.624ZM82.1001 272.876V267.146H84.3607C84.7934 267.146 85.1628 267.223 85.4686 267.378C85.7764 267.531 86.0105 267.749 86.1709 268.03C86.3332 268.31 86.4143 268.639 86.4143 269.018C86.4143 269.398 86.3322 269.726 86.1681 270C86.004 270.272 85.7662 270.481 85.4547 270.627C85.145 270.772 84.7701 270.845 84.3299 270.845H82.8163V269.871H84.1341C84.3654 269.871 84.5575 269.839 84.7104 269.776C84.8634 269.713 84.9772 269.617 85.0518 269.491C85.1282 269.364 85.1665 269.206 85.1665 269.018C85.1665 268.828 85.1282 268.667 85.0518 268.537C84.9772 268.406 84.8625 268.307 84.7076 268.24C84.5547 268.171 84.3616 268.136 84.1285 268.136H83.3115V272.876H82.1001ZM85.1945 270.268L86.6186 272.876H85.2812L83.8879 270.268H85.1945ZM88.2581 272.876H86.9599L88.9379 267.146H90.4991L92.4744 272.876H91.1762L89.7409 268.455H89.6961L88.2581 272.876ZM88.1769 270.624H91.2433V271.569H88.1769V270.624ZM98.7869 268.998C98.7478 268.862 98.6928 268.742 98.6219 268.637C98.551 268.531 98.4643 268.441 98.3617 268.369C98.261 268.294 98.1453 268.237 98.0147 268.198C97.886 268.159 97.7434 268.139 97.5867 268.139C97.2938 268.139 97.0364 268.212 96.8145 268.358C96.5944 268.503 96.4228 268.715 96.2997 268.993C96.1766 269.269 96.115 269.606 96.115 270.005C96.115 270.405 96.1757 270.744 96.2969 271.024C96.4181 271.304 96.5897 271.517 96.8117 271.665C97.0336 271.81 97.2957 271.883 97.5979 271.883C97.8721 271.883 98.1061 271.834 98.3001 271.737C98.496 271.638 98.6452 271.499 98.7478 271.32C98.8522 271.141 98.9045 270.93 98.9045 270.685L99.1507 270.722H97.6734V269.81H100.071V270.531C100.071 271.035 99.9648 271.468 99.7522 271.83C99.5396 272.19 99.2467 272.467 98.8737 272.663C98.5006 272.857 98.0735 272.954 97.5923 272.954C97.0551 272.954 96.5832 272.836 96.1766 272.599C95.77 272.36 95.4529 272.022 95.2253 271.583C94.9996 271.143 94.8868 270.621 94.8868 270.017C94.8868 269.552 94.9539 269.138 95.0882 268.774C95.2244 268.409 95.4146 268.099 95.659 267.846C95.9033 267.592 96.1878 267.399 96.5123 267.266C96.8369 267.134 97.1885 267.068 97.5671 267.068C97.8916 267.068 98.1938 267.115 98.4736 267.21C98.7534 267.304 99.0014 267.436 99.2178 267.608C99.436 267.779 99.6142 267.984 99.7522 268.22C99.8902 268.455 99.9788 268.715 100.018 268.998H98.7869ZM100.981 272.876V267.146H104.842V268.145H102.193V269.51H104.643V270.509H102.193V271.877H104.853V272.876H100.981ZM106.793 272.876H105.495L107.473 267.146H109.034L111.009 272.876H109.711L108.276 268.455H108.231L106.793 272.876ZM106.712 270.624H109.778V271.569H106.712V270.624ZM116.492 267.146V272.876H115.445L112.952 269.27H112.91V272.876H111.699V267.146H112.762L115.235 270.75H115.286V267.146H116.492ZM117.492 272.876V267.146H118.704V271.877H121.16V272.876H117.492ZM125.502 267.146H126.713V270.867C126.713 271.285 126.614 271.651 126.414 271.964C126.216 272.277 125.939 272.522 125.583 272.697C125.227 272.87 124.812 272.957 124.338 272.957C123.862 272.957 123.446 272.87 123.09 272.697C122.734 272.522 122.457 272.277 122.259 271.964C122.061 271.651 121.963 271.285 121.963 270.867V267.146H123.174V270.764C123.174 270.982 123.222 271.176 123.317 271.346C123.414 271.515 123.55 271.649 123.725 271.746C123.901 271.843 124.105 271.891 124.338 271.891C124.573 271.891 124.777 271.843 124.951 271.746C125.126 271.649 125.261 271.515 125.356 271.346C125.453 271.176 125.502 270.982 125.502 270.764V267.146ZM132.766 269.152H131.54C131.518 268.994 131.472 268.853 131.403 268.73C131.334 268.605 131.246 268.498 131.137 268.411C131.029 268.323 130.904 268.256 130.762 268.209C130.623 268.163 130.471 268.139 130.306 268.139C130.01 268.139 129.752 268.213 129.531 268.36C129.311 268.506 129.141 268.718 129.019 268.998C128.898 269.276 128.838 269.614 128.838 270.011C128.838 270.419 128.898 270.763 129.019 271.041C129.143 271.319 129.314 271.528 129.534 271.67C129.754 271.812 130.009 271.883 130.298 271.883C130.46 271.883 130.61 271.861 130.748 271.818C130.888 271.776 131.012 271.713 131.121 271.631C131.229 271.547 131.318 271.445 131.389 271.326C131.462 271.207 131.512 271.07 131.54 270.918L132.766 270.923C132.734 271.186 132.655 271.44 132.528 271.684C132.403 271.927 132.234 272.144 132.021 272.336C131.811 272.526 131.559 272.677 131.266 272.789C130.975 272.899 130.646 272.954 130.278 272.954C129.767 272.954 129.31 272.839 128.908 272.607C128.506 272.376 128.189 272.041 127.956 271.603C127.725 271.165 127.609 270.634 127.609 270.011C127.609 269.386 127.727 268.855 127.962 268.416C128.197 267.978 128.516 267.644 128.919 267.415C129.322 267.183 129.775 267.068 130.278 267.068C130.61 267.068 130.918 267.114 131.202 267.208C131.487 267.301 131.74 267.437 131.96 267.616C132.18 267.793 132.359 268.011 132.497 268.268C132.637 268.525 132.727 268.82 132.766 269.152ZM134.514 272.876H133.216L135.194 267.146H136.755L138.731 272.876H137.432L135.997 268.455H135.952L134.514 272.876ZM134.433 270.624H137.5V271.569H134.433V270.624ZM144.352 268.794C144.33 268.568 144.234 268.393 144.064 268.268C143.894 268.143 143.664 268.081 143.373 268.081C143.175 268.081 143.008 268.109 142.872 268.164C142.736 268.219 142.631 268.294 142.559 268.391C142.488 268.488 142.452 268.598 142.452 268.721C142.449 268.824 142.47 268.913 142.517 268.99C142.565 269.066 142.631 269.133 142.715 269.188C142.799 269.243 142.896 269.29 143.006 269.331C143.116 269.37 143.234 269.404 143.359 269.432L143.874 269.555C144.124 269.611 144.353 269.686 144.562 269.779C144.771 269.872 144.952 269.987 145.105 270.123C145.258 270.259 145.376 270.419 145.46 270.604C145.546 270.789 145.59 271.001 145.592 271.239C145.59 271.59 145.5 271.894 145.323 272.151C145.148 272.407 144.894 272.606 144.562 272.747C144.232 272.887 143.834 272.957 143.367 272.957C142.905 272.957 142.502 272.886 142.159 272.744C141.817 272.603 141.551 272.393 141.358 272.115C141.168 271.835 141.068 271.489 141.059 271.077H142.231C142.244 271.269 142.299 271.43 142.396 271.558C142.495 271.685 142.627 271.781 142.791 271.846C142.957 271.91 143.144 271.942 143.353 271.942C143.559 271.942 143.737 271.912 143.888 271.852C144.041 271.792 144.159 271.709 144.243 271.603C144.327 271.497 144.369 271.374 144.369 271.236C144.369 271.108 144.331 271 144.254 270.912C144.18 270.824 144.07 270.75 143.924 270.688C143.78 270.627 143.604 270.571 143.395 270.52L142.771 270.364C142.288 270.246 141.907 270.062 141.627 269.812C141.347 269.562 141.208 269.226 141.21 268.802C141.208 268.455 141.301 268.152 141.487 267.893C141.676 267.634 141.934 267.431 142.262 267.286C142.59 267.14 142.963 267.068 143.381 267.068C143.807 267.068 144.178 267.14 144.495 267.286C144.814 267.431 145.062 267.634 145.239 267.893C145.416 268.152 145.508 268.453 145.513 268.794H144.352ZM147.618 267.146V272.876H146.406V267.146H147.618ZM148.615 272.876V267.146H149.826V271.877H152.283V272.876H148.615ZM153.505 267.146L154.889 271.499H154.943L156.33 267.146H157.673L155.698 272.876H154.137L152.159 267.146H153.505ZM158.589 272.876H157.291L159.269 267.146H160.83L162.805 272.876H161.507L160.072 268.455H160.027L158.589 272.876ZM158.508 270.624H161.574V271.569H158.508V270.624Z" fill="#855B35"/>
<path d="M30.97 193.24H31.7815L33.9008 187.985H33.1524L31.3797 192.523L29.607 187.985H28.8585L30.97 193.24ZM36.4435 193.24H37.0344V190.624C37.0344 189.703 36.3647 189.34 35.5611 189.34C34.9387 189.34 34.4502 189.545 34.0405 189.97L34.3163 190.38C34.655 190.018 35.0253 189.852 35.4823 189.852C36.0338 189.852 36.4435 190.144 36.4435 190.656V191.341C36.1362 190.987 35.7029 190.821 35.1829 190.821C34.5369 190.821 33.8514 191.223 33.8514 192.074C33.8514 192.901 34.5369 193.335 35.1829 193.335C35.695 193.335 36.1283 193.153 36.4435 192.807V193.24ZM36.4435 192.436C36.215 192.752 35.8132 192.909 35.3956 192.909C34.8441 192.909 34.4581 192.563 34.4581 192.082C34.4581 191.593 34.8441 191.247 35.3956 191.247C35.8132 191.247 36.215 191.404 36.4435 191.72V192.436ZM38.2189 193.24H38.8098V187.985H38.2189V193.24ZM41.6509 193.335C42.8091 193.335 43.5339 192.436 43.5339 191.333C43.5339 190.23 42.8091 189.34 41.6509 189.34C40.4927 189.34 39.7679 190.23 39.7679 191.333C39.7679 192.436 40.4927 193.335 41.6509 193.335ZM41.6509 192.807C40.8394 192.807 40.3824 192.113 40.3824 191.333C40.3824 190.561 40.8394 189.868 41.6509 189.868C42.4624 189.868 42.9115 190.561 42.9115 191.333C42.9115 192.113 42.4624 192.807 41.6509 192.807ZM44.4972 193.24H45.0881V190.546C45.2614 190.238 45.7578 189.939 46.1202 189.939C46.2147 189.939 46.2856 189.947 46.3565 189.963V189.356C45.8366 189.356 45.3954 189.647 45.0881 190.049V189.435H44.4972V193.24ZM29.4021 209.24H31.7972C32.7584 209.24 33.3178 208.665 33.3178 207.822C33.3178 207.192 32.853 206.617 32.2936 206.53C32.7742 206.427 33.2154 205.986 33.2154 205.324C33.2154 204.537 32.656 203.985 31.7421 203.985H29.4021V209.24ZM30.0561 206.262V204.568H31.6318C32.2227 204.568 32.5378 204.946 32.5378 205.419C32.5378 205.9 32.2227 206.262 31.6318 206.262H30.0561ZM30.0561 208.657V206.845H31.6633C32.3094 206.845 32.6403 207.27 32.6403 207.751C32.6403 208.31 32.2778 208.657 31.6633 208.657H30.0561ZM36.7128 209.24H37.3037V206.624C37.3037 205.703 36.634 205.34 35.8304 205.34C35.208 205.34 34.7195 205.545 34.3098 205.97L34.5855 206.38C34.9243 206.018 35.2946 205.852 35.7516 205.852C36.3031 205.852 36.7128 206.144 36.7128 206.656V207.341C36.4055 206.987 35.9722 206.821 35.4522 206.821C34.8061 206.821 34.1207 207.223 34.1207 208.074C34.1207 208.901 34.8061 209.335 35.4522 209.335C35.9643 209.335 36.3976 209.153 36.7128 208.807V209.24ZM36.7128 208.436C36.4843 208.752 36.0825 208.909 35.6649 208.909C35.1134 208.909 34.7274 208.563 34.7274 208.082C34.7274 207.593 35.1134 207.247 35.6649 207.247C36.0825 207.247 36.4843 207.404 36.7128 207.72V208.436ZM41.0566 209.24H41.6475V206.569C41.6475 205.742 41.2299 205.34 40.4342 205.34C39.8669 205.34 39.347 205.671 39.0791 205.986V205.435H38.4882V209.24H39.0791V206.459C39.2997 206.152 39.7409 205.868 40.2057 205.868C40.7178 205.868 41.0566 206.081 41.0566 206.75V209.24ZM42.607 207.333C42.607 208.468 43.3712 209.335 44.5057 209.335C45.1991 209.335 45.6088 209.051 45.9003 208.673L45.5063 208.31C45.2542 208.649 44.9312 208.807 44.5373 208.807C43.7258 208.807 43.2215 208.176 43.2215 207.333C43.2215 206.49 43.7258 205.868 44.5373 205.868C44.9312 205.868 45.2542 206.018 45.5063 206.364L45.9003 206.002C45.6088 205.624 45.1991 205.34 44.5057 205.34C43.3712 205.34 42.607 206.207 42.607 207.333ZM48.3908 209.335C49.549 209.335 50.2738 208.436 50.2738 207.333C50.2738 206.23 49.549 205.34 48.3908 205.34C47.2327 205.34 46.5078 206.23 46.5078 207.333C46.5078 208.436 47.2327 209.335 48.3908 209.335ZM48.3908 208.807C47.5793 208.807 47.1224 208.113 47.1224 207.333C47.1224 206.561 47.5793 205.868 48.3908 205.868C49.2023 205.868 49.6514 206.561 49.6514 207.333C49.6514 208.113 49.2023 208.807 48.3908 208.807ZM51.1189 205.813C51.1189 206.049 51.3159 206.246 51.5523 206.246C51.7886 206.246 51.9856 206.049 51.9856 205.813C51.9856 205.577 51.7886 205.38 51.5523 205.38C51.3159 205.38 51.1189 205.577 51.1189 205.813ZM51.1189 208.886C51.1189 209.122 51.3159 209.319 51.5523 209.319C51.7886 209.319 51.9856 209.122 51.9856 208.886C51.9856 208.649 51.7886 208.452 51.5523 208.452C51.3159 208.452 51.1189 208.649 51.1189 208.886ZM33.176 225.24H33.9008L31.7815 219.985H30.97L28.8585 225.24H29.5833L30.0482 224.074H32.7112L33.176 225.24ZM31.3797 220.568L32.5142 223.491H30.2373L31.3797 220.568ZM34.5564 226.217C35.0054 226.658 35.4467 226.784 36.0927 226.784C37.0224 226.784 37.9048 226.39 37.9048 225.13V221.435H37.3139V222.01C37.0066 221.592 36.5497 221.34 36.0376 221.34C35.037 221.34 34.3436 222.097 34.3436 223.318C34.3436 224.547 35.0448 225.287 36.0376 225.287C36.5733 225.287 37.0381 224.996 37.3139 224.61V225.153C37.3139 225.989 36.723 226.296 36.0927 226.296C35.5491 226.296 35.1709 226.154 34.8558 225.776L34.5564 226.217ZM37.3139 224.145C37.109 224.476 36.6521 224.767 36.1794 224.767C35.4151 224.767 34.9582 224.153 34.9582 223.318C34.9582 222.475 35.4151 221.868 36.1794 221.868C36.6521 221.868 37.109 222.152 37.3139 222.483V224.145ZM41.3889 220.86H41.7907L41.0186 219.725H40.4513L39.7028 220.86H40.1047L40.7349 220.024L41.3889 220.86ZM38.8677 223.333C38.8677 224.523 39.6792 225.335 40.8059 225.335C41.4283 225.335 41.9404 225.13 42.3186 224.752L42.0349 224.366C41.7355 224.673 41.2943 224.846 40.861 224.846C40.0416 224.846 39.5374 224.247 39.4901 223.53H42.5707V223.381C42.5707 222.238 41.8931 221.34 40.7428 221.34C39.6556 221.34 38.8677 222.23 38.8677 223.333ZM40.7349 221.829C41.6016 221.829 41.9798 222.53 41.9877 223.097H39.4901C39.5216 222.514 39.9234 221.829 40.7349 221.829ZM46.0962 225.24H46.6871V222.569C46.6871 221.742 46.2695 221.34 45.4738 221.34C44.9065 221.34 44.3865 221.671 44.1186 221.986V221.435H43.5277V225.24H44.1186V222.459C44.3392 222.152 44.7804 221.868 45.2453 221.868C45.7574 221.868 46.0962 222.081 46.0962 222.75V225.24ZM47.6465 223.333C47.6465 224.468 48.4108 225.335 49.5453 225.335C50.2386 225.335 50.6483 225.051 50.9398 224.673L50.5459 224.31C50.2938 224.649 49.9707 224.807 49.5768 224.807C48.7653 224.807 48.2611 224.176 48.2611 223.333C48.2611 222.49 48.7653 221.868 49.5768 221.868C49.9707 221.868 50.2938 222.018 50.5459 222.364L50.9398 222.002C50.6483 221.624 50.2386 221.34 49.5453 221.34C48.4108 221.34 47.6465 222.207 47.6465 223.333ZM52.0595 220.797C52.2801 220.797 52.4613 220.615 52.4613 220.395C52.4613 220.174 52.2801 220.001 52.0595 220.001C51.8468 220.001 51.6656 220.174 51.6656 220.395C51.6656 220.615 51.8468 220.797 52.0595 220.797ZM51.768 225.24H52.3589V221.435H51.768V225.24ZM55.917 225.24H56.5079V222.624C56.5079 221.703 55.8382 221.34 55.0346 221.34C54.4122 221.34 53.9237 221.545 53.514 221.97L53.7897 222.38C54.1285 222.018 54.4988 221.852 54.9558 221.852C55.5073 221.852 55.917 222.144 55.917 222.656V223.341C55.6097 222.987 55.1764 222.821 54.6564 222.821C54.0103 222.821 53.3249 223.223 53.3249 224.074C53.3249 224.901 54.0103 225.335 54.6564 225.335C55.1685 225.335 55.6018 225.153 55.917 224.807V225.24ZM55.917 224.436C55.6885 224.752 55.2867 224.909 54.8691 224.909C54.3176 224.909 53.9316 224.563 53.9316 224.082C53.9316 223.593 54.3176 223.247 54.8691 223.247C55.2867 223.247 55.6885 223.404 55.917 223.72V224.436ZM57.5742 221.813C57.5742 222.049 57.7712 222.246 58.0075 222.246C58.2439 222.246 58.4408 222.049 58.4408 221.813C58.4408 221.577 58.2439 221.38 58.0075 221.38C57.7712 221.38 57.5742 221.577 57.5742 221.813ZM57.5742 224.886C57.5742 225.122 57.7712 225.319 58.0075 225.319C58.2439 225.319 58.4408 225.122 58.4408 224.886C58.4408 224.649 58.2439 224.452 58.0075 224.452C57.7712 224.452 57.5742 224.649 57.5742 224.886Z" fill="#855B35"/>
<path d="M32.2617 299.302C33.215 299.302 33.8453 298.861 34.2865 298.262L33.7271 297.955C33.4277 298.404 32.8841 298.719 32.2617 298.719C31.1351 298.719 30.2605 297.829 30.2605 296.584C30.2605 295.332 31.1351 294.449 32.2617 294.449C32.8841 294.449 33.4277 294.772 33.7271 295.213L34.2786 294.906C33.8611 294.315 33.215 293.866 32.2617 293.866C30.7726 293.866 29.583 294.969 29.583 296.584C29.583 298.199 30.7726 299.302 32.2617 299.302ZM35.1199 299.208H35.7739V297.12H37.2314C38.2714 297.12 38.878 296.395 38.878 295.536C38.878 294.678 38.2871 293.953 37.2314 293.953H35.1199V299.208ZM38.2005 295.536C38.2005 296.127 37.775 296.537 37.1526 296.537H35.7739V294.536H37.1526C37.775 294.536 38.2005 294.946 38.2005 295.536ZM39.744 299.208H40.3979V296.813H43.1318V296.23H40.3979V294.536H43.187V293.953H39.744V299.208ZM43.9339 295.781C43.9339 296.017 44.1309 296.214 44.3672 296.214C44.6036 296.214 44.8006 296.017 44.8006 295.781C44.8006 295.544 44.6036 295.347 44.3672 295.347C44.1309 295.347 43.9339 295.544 43.9339 295.781ZM43.9339 298.853C43.9339 299.09 44.1309 299.287 44.3672 299.287C44.6036 299.287 44.8006 299.09 44.8006 298.853C44.8006 298.617 44.6036 298.42 44.3672 298.42C44.1309 298.42 43.9339 298.617 43.9339 298.853ZM29.7957 315.208H32.1908C33.152 315.208 33.7114 314.633 33.7114 313.79C33.7114 313.159 33.2465 312.584 32.6871 312.498C33.1677 312.395 33.609 311.954 33.609 311.292C33.609 310.504 33.0496 309.953 32.1356 309.953H29.7957V315.208ZM30.4496 312.23V310.536H32.0253C32.6162 310.536 32.9314 310.914 32.9314 311.387C32.9314 311.867 32.6162 312.23 32.0253 312.23H30.4496ZM30.4496 314.625V312.813H32.0569C32.7029 312.813 33.0338 313.238 33.0338 313.719C33.0338 314.278 32.6714 314.625 32.0569 314.625H30.4496ZM37.1063 315.208H37.6972V312.592C37.6972 311.67 37.0275 311.308 36.2239 311.308C35.6015 311.308 35.113 311.513 34.7033 311.938L34.9791 312.348C35.3179 311.986 35.6882 311.82 36.1451 311.82C36.6966 311.82 37.1063 312.112 37.1063 312.624V313.309C36.7991 312.955 36.3657 312.789 35.8457 312.789C35.1997 312.789 34.5143 313.191 34.5143 314.042C34.5143 314.869 35.1997 315.302 35.8457 315.302C36.3579 315.302 36.7912 315.121 37.1063 314.775V315.208ZM37.1063 314.404C36.8778 314.719 36.476 314.877 36.0585 314.877C35.507 314.877 35.1209 314.53 35.1209 314.05C35.1209 313.561 35.507 313.215 36.0585 313.215C36.476 313.215 36.8778 313.372 37.1063 313.687V314.404ZM41.4502 315.208H42.0411V312.537C42.0411 311.71 41.6235 311.308 40.8278 311.308C40.2605 311.308 39.7405 311.639 39.4726 311.954V311.403H38.8817V315.208H39.4726V312.427C39.6932 312.119 40.1344 311.836 40.5993 311.836C41.1114 311.836 41.4502 312.049 41.4502 312.718V315.208ZM43.0005 313.301C43.0005 314.436 43.7648 315.302 44.8993 315.302C45.5926 315.302 46.0023 315.019 46.2938 314.641L45.8999 314.278C45.6478 314.617 45.3247 314.775 44.9308 314.775C44.1193 314.775 43.6151 314.144 43.6151 313.301C43.6151 312.458 44.1193 311.836 44.9308 311.836C45.3247 311.836 45.6478 311.986 45.8999 312.332L46.2938 311.97C46.0023 311.592 45.5926 311.308 44.8993 311.308C43.7648 311.308 43.0005 312.175 43.0005 313.301ZM48.7844 315.302C49.9426 315.302 50.6674 314.404 50.6674 313.301C50.6674 312.198 49.9426 311.308 48.7844 311.308C47.6262 311.308 46.9014 312.198 46.9014 313.301C46.9014 314.404 47.6262 315.302 48.7844 315.302ZM48.7844 314.775C47.9729 314.775 47.5159 314.081 47.5159 313.301C47.5159 312.529 47.9729 311.836 48.7844 311.836C49.5959 311.836 50.045 312.529 50.045 313.301C50.045 314.081 49.5959 314.775 48.7844 314.775ZM51.5125 311.781C51.5125 312.017 51.7095 312.214 51.9458 312.214C52.1822 312.214 52.3791 312.017 52.3791 311.781C52.3791 311.544 52.1822 311.347 51.9458 311.347C51.7095 311.347 51.5125 311.544 51.5125 311.781ZM51.5125 314.853C51.5125 315.09 51.7095 315.287 51.9458 315.287C52.1822 315.287 52.3791 315.09 52.3791 314.853C52.3791 314.617 52.1822 314.42 51.9458 314.42C51.7095 314.42 51.5125 314.617 51.5125 314.853ZM33.5696 331.208H34.2944L32.175 325.953H31.3635L29.2521 331.208H29.9769L30.4417 330.042H33.1047L33.5696 331.208ZM31.7732 326.536L32.9078 329.459H30.6308L31.7732 326.536ZM34.9499 332.185C35.399 332.626 35.8402 332.752 36.4863 332.752C37.4159 332.752 38.2983 332.358 38.2983 331.098V327.403H37.7074V327.978C37.4002 327.56 36.9432 327.308 36.4311 327.308C35.4305 327.308 34.7372 328.064 34.7372 329.285C34.7372 330.515 35.4384 331.255 36.4311 331.255C36.9669 331.255 37.4317 330.964 37.7074 330.578V331.121C37.7074 331.956 37.1165 332.264 36.4863 332.264C35.9426 332.264 35.5645 332.122 35.2493 331.744L34.9499 332.185ZM37.7074 330.113C37.5026 330.444 37.0456 330.735 36.5729 330.735C35.8087 330.735 35.3517 330.121 35.3517 329.285C35.3517 328.442 35.8087 327.836 36.5729 327.836C37.0456 327.836 37.5026 328.119 37.7074 328.45V330.113ZM41.7824 326.827H42.1842L41.4121 325.693H40.8449L40.0964 326.827H40.4982L41.1285 325.992L41.7824 326.827ZM39.2613 329.301C39.2613 330.491 40.0728 331.302 41.1994 331.302C41.8218 331.302 42.3339 331.098 42.7121 330.719L42.4285 330.333C42.1291 330.641 41.6879 330.814 41.2546 330.814C40.4352 330.814 39.9309 330.215 39.8837 329.498H42.9642V329.349C42.9642 328.206 42.2867 327.308 41.1364 327.308C40.0491 327.308 39.2613 328.198 39.2613 329.301ZM41.1285 327.796C41.9952 327.796 42.3733 328.498 42.3812 329.065H39.8837C39.9152 328.482 40.317 327.796 41.1285 327.796ZM46.4897 331.208H47.0806V328.537C47.0806 327.71 46.6631 327.308 45.8673 327.308C45.3001 327.308 44.7801 327.639 44.5122 327.954V327.403H43.9213V331.208H44.5122V328.427C44.7328 328.119 45.174 327.836 45.6388 327.836C46.151 327.836 46.4897 328.049 46.4897 328.718V331.208ZM48.0401 329.301C48.0401 330.436 48.8043 331.302 49.9389 331.302C50.6322 331.302 51.0419 331.019 51.3334 330.641L50.9394 330.278C50.6873 330.617 50.3643 330.775 49.9704 330.775C49.1589 330.775 48.6546 330.144 48.6546 329.301C48.6546 328.458 49.1589 327.836 49.9704 327.836C50.3643 327.836 50.6873 327.986 50.9394 328.332L51.3334 327.97C51.0419 327.592 50.6322 327.308 49.9389 327.308C48.8043 327.308 48.0401 328.175 48.0401 329.301ZM52.4531 326.764C52.6737 326.764 52.8549 326.583 52.8549 326.363C52.8549 326.142 52.6737 325.969 52.4531 325.969C52.2403 325.969 52.0591 326.142 52.0591 326.363C52.0591 326.583 52.2403 326.764 52.4531 326.764ZM52.1616 331.208H52.7525V327.403H52.1616V331.208ZM56.3105 331.208H56.9014V328.592C56.9014 327.67 56.2317 327.308 55.4281 327.308C54.8057 327.308 54.3172 327.513 53.9075 327.938L54.1833 328.348C54.5221 327.986 54.8924 327.82 55.3493 327.82C55.9008 327.82 56.3105 328.112 56.3105 328.624V329.309C56.0033 328.955 55.5699 328.789 55.0499 328.789C54.4039 328.789 53.7185 329.191 53.7185 330.042C53.7185 330.869 54.4039 331.302 55.0499 331.302C55.5621 331.302 55.9954 331.121 56.3105 330.775V331.208ZM56.3105 330.404C56.082 330.719 55.6802 330.877 55.2627 330.877C54.7112 330.877 54.3251 330.53 54.3251 330.05C54.3251 329.561 54.7112 329.215 55.2627 329.215C55.6802 329.215 56.082 329.372 56.3105 329.687V330.404ZM57.9678 327.781C57.9678 328.017 58.1647 328.214 58.4011 328.214C58.6374 328.214 58.8344 328.017 58.8344 327.781C58.8344 327.544 58.6374 327.347 58.4011 327.347C58.1647 327.347 57.9678 327.544 57.9678 327.781ZM57.9678 330.853C57.9678 331.09 58.1647 331.287 58.4011 331.287C58.6374 331.287 58.8344 331.09 58.8344 330.853C58.8344 330.617 58.6374 330.42 58.4011 330.42C58.1647 330.42 57.9678 330.617 57.9678 330.853Z" fill="#855B35"/>
<path d="M75.3345 193.24H76.2484L74.9012 191.137C75.5709 191.05 76.209 190.546 76.209 189.6C76.209 188.631 75.5236 187.985 74.523 187.985H72.3091V193.24H73.097V191.215H74.0818L75.3345 193.24ZM75.3975 189.6C75.3975 190.152 74.9878 190.522 74.4206 190.522H73.097V188.678H74.4206C74.9878 188.678 75.3975 189.049 75.3975 189.6ZM80.9611 191.751C80.9611 190.703 80.0945 190.404 79.2751 190.183V188.647C79.6927 188.718 80.0787 188.907 80.3781 189.222L80.843 188.639C80.449 188.237 79.929 187.985 79.2751 187.922V187.189H78.7157V187.914C77.7388 187.985 77.0691 188.592 77.0691 189.403C77.0691 190.396 77.9121 190.687 78.7157 190.892V192.61C78.1248 192.539 77.66 192.232 77.3527 191.893L76.9036 192.5C77.3054 192.949 77.9042 193.272 78.7157 193.327V194.028H79.2751V193.319C80.4727 193.224 80.9611 192.507 80.9611 191.751ZM77.8806 189.348C77.8806 188.938 78.2115 188.655 78.7157 188.615V190.034C78.243 189.9 77.8806 189.726 77.8806 189.348ZM79.2751 192.61V191.042C79.7715 191.192 80.1575 191.373 80.1575 191.822C80.1575 192.153 79.9212 192.539 79.2751 192.61ZM83.5488 192.476C83.8876 192.949 84.5652 193.335 85.4791 193.335C86.6688 193.335 87.4015 192.696 87.4015 191.814C87.4015 190.987 86.6767 190.577 86.1803 190.53C86.7003 190.435 87.3227 190.049 87.3227 189.317C87.3227 188.434 86.5506 187.906 85.4791 187.906C84.6361 187.906 84.0137 188.261 83.6198 188.726L84.0373 189.214C84.4234 188.82 84.8567 188.607 85.4082 188.607C86.0306 188.607 86.5348 188.891 86.5348 189.427C86.5348 189.97 86.0149 190.207 85.3767 190.207C85.1718 190.207 84.8961 190.207 84.8094 190.199V190.916C84.8882 190.908 85.164 190.908 85.3767 190.908C86.1409 190.908 86.6136 191.152 86.6136 191.735C86.6136 192.287 86.1803 192.633 85.4555 192.633C84.8646 192.633 84.3209 192.366 83.99 191.964L83.5488 192.476ZM88.24 192.83C88.24 193.098 88.4606 193.327 88.7285 193.327C88.9964 193.327 89.2249 193.098 89.2249 192.83C89.2249 192.563 88.9964 192.342 88.7285 192.342C88.4606 192.342 88.24 192.563 88.24 192.83ZM90.0858 193.24H93.7888V192.547H91.3385C92.7803 191.436 93.7652 190.514 93.7652 189.49C93.7652 188.442 92.8749 187.906 91.9294 187.906C91.1967 187.906 90.4798 188.198 90.0464 188.741L90.5113 189.254C90.8343 188.867 91.3149 188.607 91.9373 188.607C92.4494 188.607 92.9615 188.875 92.9615 189.49C92.9615 190.317 92.0555 191.105 90.0858 192.618V193.24ZM94.6934 190.617C94.6934 191.916 95.2922 193.335 96.7498 193.335C98.2073 193.335 98.8061 191.916 98.8061 190.617C98.8061 189.317 98.2073 187.906 96.7498 187.906C95.2922 187.906 94.6934 189.317 94.6934 190.617ZM98.0025 190.617C98.0025 191.641 97.6794 192.633 96.7498 192.633C95.8201 192.633 95.4971 191.641 95.4971 190.617C95.4971 189.592 95.8201 188.607 96.7498 188.607C97.6794 188.607 98.0025 189.592 98.0025 190.617ZM99.5329 190.617C99.5329 191.916 100.132 193.335 101.589 193.335C103.047 193.335 103.646 191.916 103.646 190.617C103.646 189.317 103.047 187.906 101.589 187.906C100.132 187.906 99.5329 189.317 99.5329 190.617ZM102.842 190.617C102.842 191.641 102.519 192.633 101.589 192.633C100.66 192.633 100.337 191.641 100.337 190.617C100.337 189.592 100.66 188.607 101.589 188.607C102.519 188.607 102.842 189.592 102.842 190.617ZM104.567 194.264C104.969 193.981 105.26 193.508 105.26 192.996C105.26 192.578 105 192.342 104.709 192.342C104.441 192.342 104.228 192.555 104.228 192.823C104.228 193.083 104.409 193.272 104.654 193.272C104.693 193.272 104.756 193.256 104.772 193.256C104.732 193.516 104.488 193.831 104.236 193.989L104.567 194.264ZM106.027 190.617C106.027 191.916 106.625 193.335 108.083 193.335C109.541 193.335 110.139 191.916 110.139 190.617C110.139 189.317 109.541 187.906 108.083 187.906C106.625 187.906 106.027 189.317 106.027 190.617ZM109.336 190.617C109.336 191.641 109.013 192.633 108.083 192.633C107.153 192.633 106.83 191.641 106.83 190.617C106.83 189.592 107.153 188.607 108.083 188.607C109.013 188.607 109.336 189.592 109.336 190.617ZM110.866 190.617C110.866 191.916 111.465 193.335 112.923 193.335C114.38 193.335 114.979 191.916 114.979 190.617C114.979 189.317 114.38 187.906 112.923 187.906C111.465 187.906 110.866 189.317 110.866 190.617ZM114.175 190.617C114.175 191.641 113.852 192.633 112.923 192.633C111.993 192.633 111.67 191.641 111.67 190.617C111.67 189.592 111.993 188.607 112.923 188.607C113.852 188.607 114.175 189.592 114.175 190.617ZM72.0885 206.624C72.0885 208.066 72.6794 209.335 74.1842 209.335C75.3424 209.335 76.0751 208.539 76.0751 207.593C76.0751 206.475 75.2793 205.907 74.3339 205.907C73.6879 205.907 73.1206 206.325 72.8921 206.68C72.8842 206.624 72.8842 206.569 72.8842 206.506C72.8842 205.529 73.3648 204.607 74.3181 204.607C74.8381 204.607 75.1454 204.804 75.4133 205.112L75.7993 204.513C75.4606 204.151 74.98 203.906 74.3181 203.906C72.8133 203.906 72.0885 205.151 72.0885 206.624ZM75.2793 207.617C75.2793 208.082 74.9012 208.633 74.1448 208.633C73.286 208.633 72.963 207.901 72.9 207.286C73.1757 206.869 73.6485 206.585 74.1369 206.585C74.7594 206.585 75.2793 206.916 75.2793 207.617ZM76.9 208.507C77.3097 209.02 77.9085 209.335 78.8066 209.335C79.9175 209.335 80.7369 208.657 80.7369 207.578C80.7369 206.498 79.9412 205.892 79.0588 205.892C78.5466 205.892 78.1054 206.104 77.8533 206.357V204.678H80.3902V203.985H77.0655V206.869L77.6327 207.05C77.9794 206.719 78.3576 206.577 78.8145 206.577C79.4921 206.577 79.9412 206.979 79.9412 207.609C79.9412 208.184 79.4842 208.633 78.7988 208.633C78.1842 208.633 77.7115 208.397 77.3648 207.972L76.9 208.507ZM81.5856 208.507C81.9953 209.02 82.5941 209.335 83.4923 209.335C84.6032 209.335 85.4225 208.657 85.4225 207.578C85.4225 206.498 84.6268 205.892 83.7444 205.892C83.2323 205.892 82.7911 206.104 82.539 206.357V204.678H85.0759V203.985H81.7511V206.869L82.3184 207.05C82.665 206.719 83.0432 206.577 83.5002 206.577C84.1777 206.577 84.6268 206.979 84.6268 207.609C84.6268 208.184 84.1698 208.633 83.4844 208.633C82.8699 208.633 82.3971 208.397 82.0505 207.972L81.5856 208.507ZM90.0895 207.641H91.9803V207.026H90.0895V207.641ZM94.8294 209.24H97.3584C98.3275 209.24 98.879 208.649 98.879 207.822C98.879 207.184 98.4221 206.617 97.8627 206.53C98.3433 206.427 98.7766 205.986 98.7766 205.324C98.7766 204.56 98.233 203.985 97.2954 203.985H94.8294V209.24ZM95.6173 206.215V204.678H97.1457C97.6736 204.678 97.9651 205.017 97.9651 205.45C97.9651 205.884 97.6736 206.215 97.1457 206.215H95.6173ZM95.6173 208.547V206.908H97.1851C97.7681 206.908 98.0675 207.286 98.0675 207.72C98.0675 208.232 97.7366 208.547 97.1851 208.547H95.6173ZM102.186 209.24H102.895V206.672C102.895 205.703 102.194 205.34 101.366 205.34C100.752 205.34 100.232 205.545 99.8063 205.963L100.114 206.451C100.452 206.112 100.823 205.947 101.256 205.947C101.8 205.947 102.186 206.23 102.186 206.703V207.333C101.894 206.995 101.453 206.829 100.941 206.829C100.303 206.829 99.6172 207.207 99.6172 208.074C99.6172 208.909 100.311 209.335 100.941 209.335C101.453 209.335 101.886 209.153 102.186 208.823V209.24ZM102.186 208.405C101.973 208.689 101.603 208.838 101.209 208.838C100.697 208.838 100.334 208.531 100.334 208.082C100.334 207.633 100.697 207.326 101.209 207.326C101.603 207.326 101.973 207.475 102.186 207.759V208.405ZM106.599 209.24H107.309V206.569C107.309 205.766 106.891 205.34 106.087 205.34C105.496 205.34 104.992 205.663 104.74 205.97V205.435H104.031V209.24H104.74V206.522C104.945 206.238 105.347 205.97 105.788 205.97C106.276 205.97 106.599 206.175 106.599 206.806V209.24ZM108.196 207.333C108.196 208.476 108.984 209.335 110.134 209.335C110.851 209.335 111.284 209.035 111.56 208.665L111.087 208.232C110.859 208.547 110.551 208.704 110.165 208.704C109.417 208.704 108.936 208.121 108.936 207.333C108.936 206.546 109.417 205.97 110.165 205.97C110.551 205.97 110.859 206.12 111.087 206.443L111.56 206.01C111.284 205.64 110.851 205.34 110.134 205.34C108.984 205.34 108.196 206.191 108.196 207.333ZM114.027 209.335C115.216 209.335 115.949 208.436 115.949 207.333C115.949 206.238 115.216 205.34 114.027 205.34C112.845 205.34 112.104 206.238 112.104 207.333C112.104 208.436 112.845 209.335 114.027 209.335ZM114.027 208.704C113.27 208.704 112.845 208.058 112.845 207.333C112.845 206.617 113.27 205.97 114.027 205.97C114.791 205.97 115.208 206.617 115.208 207.333C115.208 208.058 114.791 208.704 114.027 208.704ZM120.44 209.24H121.425L123.513 203.985H122.615L120.929 208.381L119.251 203.985H118.353L120.44 209.24ZM125.344 209.335C126.534 209.335 127.267 208.436 127.267 207.333C127.267 206.238 126.534 205.34 125.344 205.34C124.163 205.34 123.422 206.238 123.422 207.333C123.422 208.436 124.163 209.335 125.344 209.335ZM125.344 208.704C124.588 208.704 124.163 208.058 124.163 207.333C124.163 206.617 124.588 205.97 125.344 205.97C126.109 205.97 126.526 206.617 126.526 207.333C126.526 208.058 126.109 208.704 125.344 208.704ZM129.215 209.335C129.585 209.335 129.806 209.232 129.956 209.09L129.774 208.555C129.703 208.633 129.554 208.704 129.388 208.704C129.144 208.704 129.018 208.507 129.018 208.24V206.057H129.79V205.435H129.018V204.395H128.309V205.435H127.679V206.057H128.309V208.397C128.309 208.996 128.616 209.335 129.215 209.335ZM132.261 209.335C133.451 209.335 134.184 208.436 134.184 207.333C134.184 206.238 133.451 205.34 132.261 205.34C131.08 205.34 130.339 206.238 130.339 207.333C130.339 208.436 131.08 209.335 132.261 209.335ZM132.261 208.704C131.505 208.704 131.08 208.058 131.08 207.333C131.08 206.617 131.505 205.97 132.261 205.97C133.026 205.97 133.443 206.617 133.443 207.333C133.443 208.058 133.026 208.704 132.261 208.704ZM135.084 209.24H135.793V206.593C135.959 206.309 136.439 206.041 136.794 206.041C136.888 206.041 136.967 206.049 137.038 206.065V205.348C136.534 205.348 136.085 205.64 135.793 206.018V205.435H135.084V209.24ZM140.094 209.24H140.803V206.672C140.803 205.703 140.102 205.34 139.275 205.34C138.66 205.34 138.14 205.545 137.715 205.963L138.022 206.451C138.361 206.112 138.731 205.947 139.164 205.947C139.708 205.947 140.094 206.23 140.094 206.703V207.333C139.802 206.995 139.361 206.829 138.849 206.829C138.211 206.829 137.526 207.207 137.526 208.074C137.526 208.909 138.219 209.335 138.849 209.335C139.361 209.335 139.795 209.153 140.094 208.823V209.24ZM140.094 208.405C139.881 208.689 139.511 208.838 139.117 208.838C138.605 208.838 138.242 208.531 138.242 208.082C138.242 207.633 138.605 207.326 139.117 207.326C139.511 207.326 139.881 207.475 140.094 207.759V208.405ZM144.508 209.24H145.217V206.569C145.217 205.766 144.799 205.34 143.996 205.34C143.405 205.34 142.901 205.663 142.648 205.97V205.435H141.939V209.24H142.648V206.522C142.853 206.238 143.255 205.97 143.696 205.97C144.185 205.97 144.508 206.175 144.508 206.806V209.24ZM147.388 209.335C147.758 209.335 147.979 209.232 148.129 209.09L147.948 208.555C147.877 208.633 147.727 208.704 147.561 208.704C147.317 208.704 147.191 208.507 147.191 208.24V206.057H147.963V205.435H147.191V204.395H146.482V205.435H145.852V206.057H146.482V208.397C146.482 208.996 146.789 209.335 147.388 209.335ZM149.095 204.797C149.347 204.797 149.552 204.6 149.552 204.347C149.552 204.095 149.347 203.891 149.095 203.891C148.851 203.891 148.638 204.095 148.638 204.347C148.638 204.6 148.851 204.797 149.095 204.797ZM148.749 209.24H149.458V205.435H148.749V209.24ZM155.212 209.24H155.921V206.49C155.921 205.726 155.543 205.34 154.842 205.34C154.282 205.34 153.778 205.695 153.558 206.049C153.439 205.64 153.101 205.34 152.526 205.34C151.958 205.34 151.454 205.734 151.296 205.97V205.435H150.587V209.24H151.296V206.522C151.486 206.246 151.856 205.97 152.226 205.97C152.707 205.97 152.896 206.262 152.896 206.703V209.24H153.605V206.514C153.786 206.238 154.164 205.97 154.55 205.97C155.015 205.97 155.212 206.262 155.212 206.703V209.24ZM74.783 225.335C75.8151 225.335 76.4533 224.838 76.8708 224.224L76.2011 223.869C75.9254 224.31 75.4054 224.633 74.783 224.633C73.7194 224.633 72.9 223.79 72.9 222.617C72.9 221.435 73.7194 220.6 74.783 220.6C75.4054 220.6 75.9254 220.923 76.2011 221.364L76.8708 221.009C76.4611 220.395 75.8151 219.898 74.783 219.898C73.286 219.898 72.0885 221.001 72.0885 222.617C72.0885 224.232 73.286 225.335 74.783 225.335ZM79.3267 225.335C80.5164 225.335 81.2491 224.436 81.2491 223.333C81.2491 222.238 80.5164 221.34 79.3267 221.34C78.1449 221.34 77.4043 222.238 77.4043 223.333C77.4043 224.436 78.1449 225.335 79.3267 225.335ZM79.3267 224.704C78.5703 224.704 78.1449 224.058 78.1449 223.333C78.1449 222.617 78.5703 221.97 79.3267 221.97C80.0909 221.97 80.5085 222.617 80.5085 223.333C80.5085 224.058 80.0909 224.704 79.3267 224.704ZM84.7178 225.24H85.4269V222.569C85.4269 221.766 85.0093 221.34 84.2057 221.34C83.6148 221.34 83.1105 221.663 82.8584 221.97V221.435H82.1493V225.24H82.8584V222.522C83.0633 222.238 83.4651 221.97 83.9063 221.97C84.3948 221.97 84.7178 222.175 84.7178 222.806V225.24ZM87.5982 225.335C87.9685 225.335 88.1891 225.232 88.3388 225.09L88.1575 224.555C88.0866 224.633 87.9369 224.704 87.7715 224.704C87.5273 224.704 87.4012 224.507 87.4012 224.24V222.057H88.1733V221.435H87.4012V220.395H86.6921V221.435H86.0618V222.057H86.6921V224.397C86.6921 224.996 86.9994 225.335 87.5982 225.335ZM91.3064 225.24H92.0154V222.672C92.0154 221.703 91.3142 221.34 90.487 221.34C89.8724 221.34 89.3524 221.545 88.927 221.963L89.2343 222.451C89.5731 222.112 89.9433 221.947 90.3767 221.947C90.9203 221.947 91.3064 222.23 91.3064 222.703V223.333C91.0148 222.995 90.5736 222.829 90.0615 222.829C89.4234 222.829 88.7379 223.207 88.7379 224.074C88.7379 224.909 89.4312 225.335 90.0615 225.335C90.5736 225.335 91.007 225.153 91.3064 224.823V225.24ZM91.3064 224.405C91.0936 224.689 90.7233 224.838 90.3294 224.838C89.8173 224.838 89.4549 224.531 89.4549 224.082C89.4549 223.633 89.8173 223.326 90.3294 223.326C90.7233 223.326 91.0936 223.475 91.3064 223.759V224.405ZM93.0257 221.876C93.0257 222.136 93.2463 222.364 93.5142 222.364C93.782 222.364 94.0105 222.136 94.0105 221.876C94.0105 221.608 93.782 221.38 93.5142 221.38C93.2463 221.38 93.0257 221.608 93.0257 221.876ZM93.0257 224.83C93.0257 225.098 93.2463 225.327 93.5142 225.327C93.782 225.327 94.0105 225.098 94.0105 224.83C94.0105 224.563 93.782 224.342 93.5142 224.342C93.2463 224.342 93.0257 224.563 93.0257 224.83ZM96.8554 222.617C96.8554 223.916 97.4542 225.335 98.9118 225.335C100.369 225.335 100.968 223.916 100.968 222.617C100.968 221.317 100.369 219.906 98.9118 219.906C97.4542 219.906 96.8554 221.317 96.8554 222.617ZM100.164 222.617C100.164 223.641 99.8414 224.633 98.9118 224.633C97.9821 224.633 97.6591 223.641 97.6591 222.617C97.6591 221.592 97.9821 220.607 98.9118 220.607C99.8414 220.607 100.164 221.592 100.164 222.617ZM101.695 222.617C101.695 223.916 102.294 225.335 103.751 225.335C105.209 225.335 105.808 223.916 105.808 222.617C105.808 221.317 105.209 219.906 103.751 219.906C102.294 219.906 101.695 221.317 101.695 222.617ZM105.004 222.617C105.004 223.641 104.681 224.633 103.751 224.633C102.822 224.633 102.499 223.641 102.499 222.617C102.499 221.592 102.822 220.607 103.751 220.607C104.681 220.607 105.004 221.592 105.004 222.617ZM106.534 222.617C106.534 223.916 107.133 225.335 108.591 225.335C110.048 225.335 110.647 223.916 110.647 222.617C110.647 221.317 110.048 219.906 108.591 219.906C107.133 219.906 106.534 221.317 106.534 222.617ZM109.844 222.617C109.844 223.641 109.52 224.633 108.591 224.633C107.661 224.633 107.338 223.641 107.338 222.617C107.338 221.592 107.661 220.607 108.591 220.607C109.52 220.607 109.844 221.592 109.844 222.617ZM111.374 222.617C111.374 223.916 111.973 225.335 113.43 225.335C114.888 225.335 115.487 223.916 115.487 222.617C115.487 221.317 114.888 219.906 113.43 219.906C111.973 219.906 111.374 221.317 111.374 222.617ZM114.683 222.617C114.683 223.641 114.36 224.633 113.43 224.633C112.501 224.633 112.178 223.641 112.178 222.617C112.178 221.592 112.501 220.607 113.43 220.607C114.36 220.607 114.683 221.592 114.683 222.617ZM116.214 222.617C116.214 223.916 116.812 225.335 118.27 225.335C119.727 225.335 120.326 223.916 120.326 222.617C120.326 221.317 119.727 219.906 118.27 219.906C116.812 219.906 116.214 221.317 116.214 222.617ZM119.523 222.617C119.523 223.641 119.2 224.633 118.27 224.633C117.34 224.633 117.017 223.641 117.017 222.617C117.017 221.592 117.34 220.607 118.27 220.607C119.2 220.607 119.523 221.592 119.523 222.617ZM120.927 223.641H122.818V223.026H120.927V223.641ZM123.415 222.617C123.415 223.916 124.014 225.335 125.471 225.335C126.929 225.335 127.528 223.916 127.528 222.617C127.528 221.317 126.929 219.906 125.471 219.906C124.014 219.906 123.415 221.317 123.415 222.617ZM126.724 222.617C126.724 223.641 126.401 224.633 125.471 224.633C124.542 224.633 124.219 223.641 124.219 222.617C124.219 221.592 124.542 220.607 125.471 220.607C126.401 220.607 126.724 221.592 126.724 222.617Z" fill="#855B35"/>
<path d="M72.0885 298.16C72.0885 299.46 72.6873 300.878 74.1448 300.878C75.6024 300.878 76.2011 299.46 76.2011 298.16C76.2011 296.86 75.6024 295.45 74.1448 295.45C72.6873 295.45 72.0885 296.86 72.0885 298.16ZM75.3975 298.16C75.3975 299.184 75.0745 300.177 74.1448 300.177C73.2151 300.177 72.8921 299.184 72.8921 298.16C72.8921 297.136 73.2151 296.151 74.1448 296.151C75.0745 296.151 75.3975 297.136 75.3975 298.16ZM76.928 298.16C76.928 299.46 77.5268 300.878 78.9843 300.878C80.4419 300.878 81.0407 299.46 81.0407 298.16C81.0407 296.86 80.4419 295.45 78.9843 295.45C77.5268 295.45 76.928 296.86 76.928 298.16ZM80.237 298.16C80.237 299.184 79.914 300.177 78.9843 300.177C78.0547 300.177 77.7316 299.184 77.7316 298.16C77.7316 297.136 78.0547 296.151 78.9843 296.151C79.914 296.151 80.237 297.136 80.237 298.16ZM81.6232 300.374C81.6232 300.642 81.8438 300.87 82.1117 300.87C82.3795 300.87 82.608 300.642 82.608 300.374C82.608 300.106 82.3795 299.885 82.1117 299.885C81.8438 299.885 81.6232 300.106 81.6232 300.374ZM83.4217 298.16C83.4217 299.46 84.0205 300.878 85.4781 300.878C86.9356 300.878 87.5344 299.46 87.5344 298.16C87.5344 296.86 86.9356 295.45 85.4781 295.45C84.0205 295.45 83.4217 296.86 83.4217 298.16ZM86.7308 298.16C86.7308 299.184 86.4077 300.177 85.4781 300.177C84.5484 300.177 84.2254 299.184 84.2254 298.16C84.2254 297.136 84.5484 296.151 85.4781 296.151C86.4077 296.151 86.7308 297.136 86.7308 298.16ZM88.2613 298.16C88.2613 299.46 88.86 300.878 90.3176 300.878C91.7751 300.878 92.3739 299.46 92.3739 298.16C92.3739 296.86 91.7751 295.45 90.3176 295.45C88.86 295.45 88.2613 296.86 88.2613 298.16ZM91.5703 298.16C91.5703 299.184 91.2473 300.177 90.3176 300.177C89.3879 300.177 89.0649 299.184 89.0649 298.16C89.0649 297.136 89.3879 296.151 90.3176 296.151C91.2473 296.151 91.5703 297.136 91.5703 298.16ZM93.1008 298.16C93.1008 299.46 93.6996 300.878 95.1571 300.878C96.6147 300.878 97.2134 299.46 97.2134 298.16C97.2134 296.86 96.6147 295.45 95.1571 295.45C93.6996 295.45 93.1008 296.86 93.1008 298.16ZM96.4098 298.16C96.4098 299.184 96.0868 300.177 95.1571 300.177C94.2274 300.177 93.9044 299.184 93.9044 298.16C93.9044 297.136 94.2274 296.151 95.1571 296.151C96.0868 296.151 96.4098 297.136 96.4098 298.16ZM97.796 300.374C97.796 300.642 98.0166 300.87 98.2844 300.87C98.5523 300.87 98.7808 300.642 98.7808 300.374C98.7808 300.106 98.5523 299.885 98.2844 299.885C98.0166 299.885 97.796 300.106 97.796 300.374ZM99.5945 298.16C99.5945 299.46 100.193 300.878 101.651 300.878C103.108 300.878 103.707 299.46 103.707 298.16C103.707 296.86 103.108 295.45 101.651 295.45C100.193 295.45 99.5945 296.86 99.5945 298.16ZM102.904 298.16C102.904 299.184 102.581 300.177 101.651 300.177C100.721 300.177 100.398 299.184 100.398 298.16C100.398 297.136 100.721 296.151 101.651 296.151C102.581 296.151 102.904 297.136 102.904 298.16ZM104.434 298.16C104.434 299.46 105.033 300.878 106.49 300.878C107.948 300.878 108.547 299.46 108.547 298.16C108.547 296.86 107.948 295.45 106.49 295.45C105.033 295.45 104.434 296.86 104.434 298.16ZM107.743 298.16C107.743 299.184 107.42 300.177 106.49 300.177C105.561 300.177 105.238 299.184 105.238 298.16C105.238 297.136 105.561 296.151 106.49 296.151C107.42 296.151 107.743 297.136 107.743 298.16ZM109.274 298.16C109.274 299.46 109.872 300.878 111.33 300.878C112.787 300.878 113.386 299.46 113.386 298.16C113.386 296.86 112.787 295.45 111.33 295.45C109.872 295.45 109.274 296.86 109.274 298.16ZM112.583 298.16C112.583 299.184 112.26 300.177 111.33 300.177C110.4 300.177 110.077 299.184 110.077 298.16C110.077 297.136 110.4 296.151 111.33 296.151C112.26 296.151 112.583 297.136 112.583 298.16ZM113.751 300.941H114.294L116.162 295.371H115.618L113.751 300.941ZM116.521 298.16C116.521 299.46 117.12 300.878 118.578 300.878C120.035 300.878 120.634 299.46 120.634 298.16C120.634 296.86 120.035 295.45 118.578 295.45C117.12 295.45 116.521 296.86 116.521 298.16ZM119.83 298.16C119.83 299.184 119.507 300.177 118.578 300.177C117.648 300.177 117.325 299.184 117.325 298.16C117.325 297.136 117.648 296.151 118.578 296.151C119.507 296.151 119.83 297.136 119.83 298.16ZM121.361 298.16C121.361 299.46 121.96 300.878 123.417 300.878C124.875 300.878 125.473 299.46 125.473 298.16C125.473 296.86 124.875 295.45 123.417 295.45C121.96 295.45 121.361 296.86 121.361 298.16ZM124.67 298.16C124.67 299.184 124.347 300.177 123.417 300.177C122.487 300.177 122.164 299.184 122.164 298.16C122.164 297.136 122.487 296.151 123.417 296.151C124.347 296.151 124.67 297.136 124.67 298.16ZM126.2 298.16C126.2 299.46 126.799 300.878 128.257 300.878C129.714 300.878 130.313 299.46 130.313 298.16C130.313 296.86 129.714 295.45 128.257 295.45C126.799 295.45 126.2 296.86 126.2 298.16ZM129.509 298.16C129.509 299.184 129.186 300.177 128.257 300.177C127.327 300.177 127.004 299.184 127.004 298.16C127.004 297.136 127.327 296.151 128.257 296.151C129.186 296.151 129.509 297.136 129.509 298.16ZM132.135 300.784H132.923V295.529H132.23L130.819 296.97L131.284 297.451L132.135 296.561V300.784ZM133.745 299.184H135.636V298.57H133.745V299.184ZM136.233 298.16C136.233 299.46 136.832 300.878 138.29 300.878C139.747 300.878 140.346 299.46 140.346 298.16C140.346 296.86 139.747 295.45 138.29 295.45C136.832 295.45 136.233 296.86 136.233 298.16ZM139.542 298.16C139.542 299.184 139.219 300.177 138.29 300.177C137.36 300.177 137.037 299.184 137.037 298.16C137.037 297.136 137.36 296.151 138.29 296.151C139.219 296.151 139.542 297.136 139.542 298.16ZM141.073 298.16C141.073 299.46 141.672 300.878 143.129 300.878C144.587 300.878 145.185 299.46 145.185 298.16C145.185 296.86 144.587 295.45 143.129 295.45C141.672 295.45 141.073 296.86 141.073 298.16ZM144.382 298.16C144.382 299.184 144.059 300.177 143.129 300.177C142.199 300.177 141.876 299.184 141.876 298.16C141.876 297.136 142.199 296.151 143.129 296.151C144.059 296.151 144.382 297.136 144.382 298.16ZM72.0885 314.168C72.0885 315.61 72.6794 316.878 74.1842 316.878C75.3424 316.878 76.0751 316.082 76.0751 315.137C76.0751 314.018 75.2793 313.451 74.3339 313.451C73.6879 313.451 73.1206 313.869 72.8921 314.223C72.8842 314.168 72.8842 314.113 72.8842 314.05C72.8842 313.073 73.3648 312.151 74.3181 312.151C74.8381 312.151 75.1454 312.348 75.4133 312.655L75.7993 312.056C75.4606 311.694 74.98 311.45 74.3181 311.45C72.8133 311.45 72.0885 312.695 72.0885 314.168ZM75.2793 315.161C75.2793 315.625 74.9012 316.177 74.1448 316.177C73.286 316.177 72.963 315.444 72.9 314.83C73.1757 314.412 73.6485 314.128 74.1369 314.128C74.7594 314.128 75.2793 314.459 75.2793 315.161ZM76.9 316.051C77.3097 316.563 77.9085 316.878 78.8066 316.878C79.9175 316.878 80.7369 316.201 80.7369 315.121C80.7369 314.042 79.9412 313.435 79.0588 313.435C78.5466 313.435 78.1054 313.648 77.8533 313.9V312.222H80.3902V311.529H77.0655V314.412L77.6327 314.593C77.9794 314.262 78.3576 314.121 78.8145 314.121C79.4921 314.121 79.9412 314.522 79.9412 315.153C79.9412 315.728 79.4842 316.177 78.7988 316.177C78.1842 316.177 77.7115 315.941 77.3648 315.515L76.9 316.051ZM81.5856 316.051C81.9953 316.563 82.5941 316.878 83.4923 316.878C84.6032 316.878 85.4225 316.201 85.4225 315.121C85.4225 314.042 84.6268 313.435 83.7444 313.435C83.2323 313.435 82.7911 313.648 82.539 313.9V312.222H85.0759V311.529H81.7511V314.412L82.3184 314.593C82.665 314.262 83.0432 314.121 83.5002 314.121C84.1777 314.121 84.6268 314.522 84.6268 315.153C84.6268 315.728 84.1698 316.177 83.4844 316.177C82.8699 316.177 82.3971 315.941 82.0505 315.515L81.5856 316.051ZM90.0895 315.184H91.9803V314.57H90.0895V315.184ZM94.8294 316.784H97.3584C98.3275 316.784 98.879 316.193 98.879 315.365C98.879 314.727 98.4221 314.16 97.8627 314.073C98.3433 313.971 98.7766 313.53 98.7766 312.868C98.7766 312.104 98.233 311.529 97.2954 311.529H94.8294V316.784ZM95.6173 313.758V312.222H97.1457C97.6736 312.222 97.9651 312.561 97.9651 312.994C97.9651 313.427 97.6736 313.758 97.1457 313.758H95.6173ZM95.6173 316.09V314.452H97.1851C97.7681 314.452 98.0675 314.83 98.0675 315.263C98.0675 315.775 97.7366 316.09 97.1851 316.09H95.6173ZM102.186 316.784H102.895V314.215C102.895 313.246 102.194 312.884 101.366 312.884C100.752 312.884 100.232 313.089 99.8063 313.506L100.114 313.995C100.452 313.656 100.823 313.49 101.256 313.49C101.8 313.49 102.186 313.774 102.186 314.247V314.877C101.894 314.538 101.453 314.373 100.941 314.373C100.303 314.373 99.6172 314.751 99.6172 315.618C99.6172 316.453 100.311 316.878 100.941 316.878C101.453 316.878 101.886 316.697 102.186 316.366V316.784ZM102.186 315.948C101.973 316.232 101.603 316.382 101.209 316.382C100.697 316.382 100.334 316.075 100.334 315.625C100.334 315.176 100.697 314.869 101.209 314.869C101.603 314.869 101.973 315.019 102.186 315.302V315.948ZM106.599 316.784H107.309V314.113C107.309 313.309 106.891 312.884 106.087 312.884C105.496 312.884 104.992 313.207 104.74 313.514V312.978H104.031V316.784H104.74V314.065C104.945 313.782 105.347 313.514 105.788 313.514C106.276 313.514 106.599 313.719 106.599 314.349V316.784ZM108.196 314.877C108.196 316.019 108.984 316.878 110.134 316.878C110.851 316.878 111.284 316.579 111.56 316.208L111.087 315.775C110.859 316.09 110.551 316.248 110.165 316.248C109.417 316.248 108.936 315.665 108.936 314.877C108.936 314.089 109.417 313.514 110.165 313.514C110.551 313.514 110.859 313.664 111.087 313.987L111.56 313.553C111.284 313.183 110.851 312.884 110.134 312.884C108.984 312.884 108.196 313.735 108.196 314.877ZM114.027 316.878C115.216 316.878 115.949 315.98 115.949 314.877C115.949 313.782 115.216 312.884 114.027 312.884C112.845 312.884 112.104 313.782 112.104 314.877C112.104 315.98 112.845 316.878 114.027 316.878ZM114.027 316.248C113.27 316.248 112.845 315.602 112.845 314.877C112.845 314.16 113.27 313.514 114.027 313.514C114.791 313.514 115.208 314.16 115.208 314.877C115.208 315.602 114.791 316.248 114.027 316.248ZM120.44 316.784H121.425L123.513 311.529H122.615L120.929 315.925L119.251 311.529H118.353L120.44 316.784ZM125.344 316.878C126.534 316.878 127.267 315.98 127.267 314.877C127.267 313.782 126.534 312.884 125.344 312.884C124.163 312.884 123.422 313.782 123.422 314.877C123.422 315.98 124.163 316.878 125.344 316.878ZM125.344 316.248C124.588 316.248 124.163 315.602 124.163 314.877C124.163 314.16 124.588 313.514 125.344 313.514C126.109 313.514 126.526 314.16 126.526 314.877C126.526 315.602 126.109 316.248 125.344 316.248ZM129.215 316.878C129.585 316.878 129.806 316.776 129.956 316.634L129.774 316.098C129.703 316.177 129.554 316.248 129.388 316.248C129.144 316.248 129.018 316.051 129.018 315.783V313.601H129.79V312.978H129.018V311.938H128.309V312.978H127.679V313.601H128.309V315.941C128.309 316.539 128.616 316.878 129.215 316.878ZM132.261 316.878C133.451 316.878 134.184 315.98 134.184 314.877C134.184 313.782 133.451 312.884 132.261 312.884C131.08 312.884 130.339 313.782 130.339 314.877C130.339 315.98 131.08 316.878 132.261 316.878ZM132.261 316.248C131.505 316.248 131.08 315.602 131.08 314.877C131.08 314.16 131.505 313.514 132.261 313.514C133.026 313.514 133.443 314.16 133.443 314.877C133.443 315.602 133.026 316.248 132.261 316.248ZM135.084 316.784H135.793V314.136C135.959 313.853 136.439 313.585 136.794 313.585C136.888 313.585 136.967 313.593 137.038 313.609V312.892C136.534 312.892 136.085 313.183 135.793 313.561V312.978H135.084V316.784ZM140.094 316.784H140.803V314.215C140.803 313.246 140.102 312.884 139.275 312.884C138.66 312.884 138.14 313.089 137.715 313.506L138.022 313.995C138.361 313.656 138.731 313.49 139.164 313.49C139.708 313.49 140.094 313.774 140.094 314.247V314.877C139.802 314.538 139.361 314.373 138.849 314.373C138.211 314.373 137.526 314.751 137.526 315.618C137.526 316.453 138.219 316.878 138.849 316.878C139.361 316.878 139.795 316.697 140.094 316.366V316.784ZM140.094 315.948C139.881 316.232 139.511 316.382 139.117 316.382C138.605 316.382 138.242 316.075 138.242 315.625C138.242 315.176 138.605 314.869 139.117 314.869C139.511 314.869 139.881 315.019 140.094 315.302V315.948ZM144.508 316.784H145.217V314.113C145.217 313.309 144.799 312.884 143.996 312.884C143.405 312.884 142.901 313.207 142.648 313.514V312.978H141.939V316.784H142.648V314.065C142.853 313.782 143.255 313.514 143.696 313.514C144.185 313.514 144.508 313.719 144.508 314.349V316.784ZM147.388 316.878C147.758 316.878 147.979 316.776 148.129 316.634L147.948 316.098C147.877 316.177 147.727 316.248 147.561 316.248C147.317 316.248 147.191 316.051 147.191 315.783V313.601H147.963V312.978H147.191V311.938H146.482V312.978H145.852V313.601H146.482V315.941C146.482 316.539 146.789 316.878 147.388 316.878ZM149.095 312.34C149.347 312.34 149.552 312.143 149.552 311.891C149.552 311.639 149.347 311.434 149.095 311.434C148.851 311.434 148.638 311.639 148.638 311.891C148.638 312.143 148.851 312.34 149.095 312.34ZM148.749 316.784H149.458V312.978H148.749V316.784ZM155.212 316.784H155.921V314.034C155.921 313.27 155.543 312.884 154.842 312.884C154.282 312.884 153.778 313.238 153.558 313.593C153.439 313.183 153.101 312.884 152.526 312.884C151.958 312.884 151.454 313.278 151.296 313.514V312.978H150.587V316.784H151.296V314.065C151.486 313.79 151.856 313.514 152.226 313.514C152.707 313.514 152.896 313.805 152.896 314.247V316.784H153.605V314.058C153.786 313.782 154.164 313.514 154.55 313.514C155.015 313.514 155.212 313.805 155.212 314.247V316.784ZM74.783 332.878C75.8151 332.878 76.4533 332.382 76.8708 331.767L76.2011 331.413C75.9254 331.854 75.4054 332.177 74.783 332.177C73.7194 332.177 72.9 331.334 72.9 330.16C72.9 328.978 73.7194 328.143 74.783 328.143C75.4054 328.143 75.9254 328.466 76.2011 328.907L76.8708 328.553C76.4611 327.938 75.8151 327.442 74.783 327.442C73.286 327.442 72.0885 328.545 72.0885 330.16C72.0885 331.775 73.286 332.878 74.783 332.878ZM79.3267 332.878C80.5164 332.878 81.2491 331.98 81.2491 330.877C81.2491 329.782 80.5164 328.884 79.3267 328.884C78.1449 328.884 77.4043 329.782 77.4043 330.877C77.4043 331.98 78.1449 332.878 79.3267 332.878ZM79.3267 332.248C78.5703 332.248 78.1449 331.602 78.1449 330.877C78.1449 330.16 78.5703 329.514 79.3267 329.514C80.0909 329.514 80.5085 330.16 80.5085 330.877C80.5085 331.602 80.0909 332.248 79.3267 332.248ZM84.7178 332.784H85.4269V330.113C85.4269 329.309 85.0093 328.884 84.2057 328.884C83.6148 328.884 83.1105 329.207 82.8584 329.514V328.978H82.1493V332.784H82.8584V330.065C83.0633 329.782 83.4651 329.514 83.9063 329.514C84.3948 329.514 84.7178 329.719 84.7178 330.349V332.784ZM87.5982 332.878C87.9685 332.878 88.1891 332.776 88.3388 332.634L88.1575 332.098C88.0866 332.177 87.9369 332.248 87.7715 332.248C87.5273 332.248 87.4012 332.051 87.4012 331.783V329.601H88.1733V328.978H87.4012V327.938H86.6921V328.978H86.0618V329.601H86.6921V331.941C86.6921 332.539 86.9994 332.878 87.5982 332.878ZM91.3064 332.784H92.0154V330.215C92.0154 329.246 91.3142 328.884 90.487 328.884C89.8724 328.884 89.3524 329.089 88.927 329.506L89.2343 329.995C89.5731 329.656 89.9433 329.49 90.3767 329.49C90.9203 329.49 91.3064 329.774 91.3064 330.247V330.877C91.0148 330.538 90.5736 330.373 90.0615 330.373C89.4234 330.373 88.7379 330.751 88.7379 331.618C88.7379 332.453 89.4312 332.878 90.0615 332.878C90.5736 332.878 91.007 332.697 91.3064 332.366V332.784ZM91.3064 331.948C91.0936 332.232 90.7233 332.382 90.3294 332.382C89.8173 332.382 89.4549 332.075 89.4549 331.625C89.4549 331.176 89.8173 330.869 90.3294 330.869C90.7233 330.869 91.0936 331.019 91.3064 331.302V331.948ZM93.0257 329.419C93.0257 329.679 93.2463 329.908 93.5142 329.908C93.782 329.908 94.0105 329.679 94.0105 329.419C94.0105 329.152 93.782 328.923 93.5142 328.923C93.2463 328.923 93.0257 329.152 93.0257 329.419ZM93.0257 332.374C93.0257 332.642 93.2463 332.87 93.5142 332.87C93.782 332.87 94.0105 332.642 94.0105 332.374C94.0105 332.106 93.782 331.885 93.5142 331.885C93.2463 331.885 93.0257 332.106 93.0257 332.374ZM96.8554 330.16C96.8554 331.46 97.4542 332.878 98.9118 332.878C100.369 332.878 100.968 331.46 100.968 330.16C100.968 328.86 100.369 327.45 98.9118 327.45C97.4542 327.45 96.8554 328.86 96.8554 330.16ZM100.164 330.16C100.164 331.184 99.8414 332.177 98.9118 332.177C97.9821 332.177 97.6591 331.184 97.6591 330.16C97.6591 329.136 97.9821 328.151 98.9118 328.151C99.8414 328.151 100.164 329.136 100.164 330.16ZM101.695 330.16C101.695 331.46 102.294 332.878 103.751 332.878C105.209 332.878 105.808 331.46 105.808 330.16C105.808 328.86 105.209 327.45 103.751 327.45C102.294 327.45 101.695 328.86 101.695 330.16ZM105.004 330.16C105.004 331.184 104.681 332.177 103.751 332.177C102.822 332.177 102.499 331.184 102.499 330.16C102.499 329.136 102.822 328.151 103.751 328.151C104.681 328.151 105.004 329.136 105.004 330.16ZM106.534 330.16C106.534 331.46 107.133 332.878 108.591 332.878C110.048 332.878 110.647 331.46 110.647 330.16C110.647 328.86 110.048 327.45 108.591 327.45C107.133 327.45 106.534 328.86 106.534 330.16ZM109.844 330.16C109.844 331.184 109.52 332.177 108.591 332.177C107.661 332.177 107.338 331.184 107.338 330.16C107.338 329.136 107.661 328.151 108.591 328.151C109.52 328.151 109.844 329.136 109.844 330.16ZM111.374 330.16C111.374 331.46 111.973 332.878 113.43 332.878C114.888 332.878 115.487 331.46 115.487 330.16C115.487 328.86 114.888 327.45 113.43 327.45C111.973 327.45 111.374 328.86 111.374 330.16ZM114.683 330.16C114.683 331.184 114.36 332.177 113.43 332.177C112.501 332.177 112.178 331.184 112.178 330.16C112.178 329.136 112.501 328.151 113.43 328.151C114.36 328.151 114.683 329.136 114.683 330.16ZM116.214 330.16C116.214 331.46 116.812 332.878 118.27 332.878C119.727 332.878 120.326 331.46 120.326 330.16C120.326 328.86 119.727 327.45 118.27 327.45C116.812 327.45 116.214 328.86 116.214 330.16ZM119.523 330.16C119.523 331.184 119.2 332.177 118.27 332.177C117.34 332.177 117.017 331.184 117.017 330.16C117.017 329.136 117.34 328.151 118.27 328.151C119.2 328.151 119.523 329.136 119.523 330.16ZM120.927 331.184H122.818V330.57H120.927V331.184ZM123.415 330.16C123.415 331.46 124.014 332.878 125.471 332.878C126.929 332.878 127.528 331.46 127.528 330.16C127.528 328.86 126.929 327.45 125.471 327.45C124.014 327.45 123.415 328.86 123.415 330.16ZM126.724 330.16C126.724 331.184 126.401 332.177 125.471 332.177C124.542 332.177 124.219 331.184 124.219 330.16C124.219 329.136 124.542 328.151 125.471 328.151C126.401 328.151 126.724 329.136 126.724 330.16Z" fill="#855B35"/>
<circle cx="39.8177" cy="162.029" r="11.0301" fill="#01BDE4"/>
<path d="M35.8782 163.014L36.7087 163.849L39.2302 161.314L39.2302 166.975L40.4049 166.975L40.4049 161.314L42.9263 163.849L43.7568 163.014L39.8175 159.053L35.8782 163.014Z" fill="#FBF9BE"/>
<circle cx="39.8177" cy="269.178" r="11.0301" fill="#01BDE4"/>
<path d="M43.7571 270.748L42.9266 269.913L40.4051 272.448V266.787H39.2304V272.448L36.7089 269.913L35.8784 270.748L39.8177 274.708L43.7571 270.748Z" fill="#FBF9BE"/>
<rect opacity="0.6" x="18.394" y="331" width="174.728" height="37.5758" fill="url(#paint2_linear_4330_486)"/>
<path d="M9 357.303H202.516V376.843C202.516 378.503 201.17 379.849 199.509 379.849H12.0061C10.3459 379.849 9 378.503 9 376.843V357.303Z" fill="#0896D7"/>
<path d="M18.394 357.303H9L18.394 352.418V357.303Z" fill="#0888C2"/>
<path d="M193.122 357.303H202.516L193.122 352.418V357.303Z" fill="#0888C2"/>
</g>
<defs>
<linearGradient id="paint0_linear_4330_486" x1="202.49" y1="0.537063" x2="-67.0353" y2="549.471" gradientUnits="userSpaceOnUse">
<stop stop-color="white"/>
<stop offset="1" stop-color="#FFF5D5"/>
</linearGradient>
<linearGradient id="paint1_linear_4330_486" x1="-19.7832" y1="417.43" x2="-72.7641" y2="50.0571" gradientUnits="userSpaceOnUse">
<stop stop-color="#00A5F0"/>
<stop offset="1" stop-color="#00D7D7"/>
</linearGradient>
<linearGradient id="paint2_linear_4330_486" x1="105.758" y1="331" x2="105.945" y2="386.049" gradientUnits="userSpaceOnUse">
<stop stop-color="#CCB579" stop-opacity="0"/>
<stop offset="1" stop-color="#CCB579"/>
</linearGradient>
</defs>
</svg>
